<svg width="305" height="131" viewBox="0 0 305 131" fill="none" xmlns="http://www.w3.org/2000/svg">
<mask id="path-1-inside-1_9_121" fill="white">
<path fill-rule="evenodd" clip-rule="evenodd" d="M201.857 14.1234H192.744L207.461 43.496L220.547 21.1844C221.478 19.2414 221.946 18.1142 221.946 17.3987C221.946 16.1697 221.478 15.556 220.778 15.044C219.729 14.5321 218.212 14.1234 215.64 14.1234H212.368V12.2823H235.965V14.1234H232.463C230.125 14.1234 228.372 14.6354 226.973 15.8644C225.57 16.8883 224.284 18.7295 222.649 21.4928L208.632 45.5438L233.631 94.4647H242.507V96.4107H210.849V94.4647H220.78L201.625 57.0073L182.349 90.3721C182 91.0876 181.766 91.8016 181.766 92.3151C181.766 93.8494 183.401 94.4632 186.321 94.4632H191.577V96.4092H165.994V94.4632H168.798C171.718 94.3629 174.054 93.9527 175.571 93.4393C177.674 92.6204 179.429 90.881 180.83 88.3243L200.689 54.9595L179.427 14.1234H169.965V12.2823H201.857V14.1234ZM304.067 119.029L304.301 121.791V121.996H303.833C303.833 120.462 302.664 119.54 300.561 119.54H297.875V124.554H299.044C299.979 124.554 300.799 124.144 301.147 123.325V122.506H301.496V127.114H301.147L300.799 125.577C300.561 125.167 299.979 125.066 299.044 125.066H297.875V130.181H300.213L303.717 129.774L304.417 128.647L304.651 127.418V127.113H305V130.49H304.886V130.795H294.137V130.49V130.181H295.658V119.538H294.137V119.028H304.067V119.029ZM252.67 119.029L259.68 127.419V120.462C259.68 119.948 259.328 119.54 258.746 119.54H257.693V119.234H257.927V119.029H261.785V119.234H261.667V119.54H260.851C260.499 119.54 260.265 119.745 260.031 119.95V130.491H259.916V130.796H259.682L250.92 120.053V129.262C250.92 129.776 251.269 130.181 252.089 130.181H252.672V130.49V130.795H248.817V130.49V130.181H249.4C249.616 130.188 249.832 130.156 250.033 130.086C250.235 130.016 250.417 129.91 250.568 129.774V119.538H248.817V119.028H252.67V119.029ZM233.045 118.721L228.958 129.262L227.79 130.181H227.207V130.49H227.908H226.973V130.795H230.828V130.49V130.181H229.893C229.31 130.181 229.073 129.979 229.073 129.774L230.125 127.113H234.212L235.381 130.181H233.63V130.49V130.795H239.001V130.49H237.484H239.235V130.181H237.484L233.045 118.721ZM231.995 121.791L233.98 126.396H230.242L231.995 121.791ZM277.784 119.029L280.122 119.54H280.356L278.018 119.029H276.616H277.784ZM282.459 119.029V122.506H282.225V122.815H282.11C281.876 121.996 281.524 121.075 280.942 120.462C279.889 119.54 278.955 119.233 277.786 119.233C276.035 119.233 275.1 120.052 274.514 121.995C274.177 122.85 274.097 123.766 274.28 124.656C274.046 128.442 275.449 130.284 278.018 130.49C279.539 130.284 280.474 129.979 280.708 129.16L280.942 128.75V127.418H279.187V127.113H279.305V126.702H284.443V127.418H282.807V129.261C281.299 130.155 279.585 130.748 277.786 131C276.035 131 274.634 130.49 273.699 129.466C272.53 128.237 271.948 126.907 272.182 125.066L272.296 123.12C272.53 122.099 273.117 121.281 273.931 120.562C274.866 119.438 276.269 118.719 278.018 118.719L280.356 119.233L281.524 119.948L282.11 119.538V119.438L282.225 119.028H282.459V119.029ZM278.018 130.695L276.616 130.49L277.784 130.795L279.771 130.285L278.018 130.695ZM187.022 119.029H188.19C189.007 119.029 189.825 119.234 190.408 119.54L190.994 119.95C190.174 119.439 189.359 119.031 188.424 119.031H187.022V119.029ZM165.292 119.029V119.234H165.058V119.54H163.889L166.227 123.325L168.33 120.257L168.564 119.948C168.564 119.743 168.212 119.538 167.629 119.538H167.043V119.028H171.134V119.233H170.9V119.538H170.314C169.731 119.538 169.379 119.948 168.796 120.562L166.459 123.632L170.666 130.181H172.301V130.49H170.546H172.067V130.795H166.577V130.49H168.328H166.808V130.181H168.21L165.058 125.372L161.906 129.979L162.722 130.181H163.543V130.49V130.795H158.984V130.49H160.153H159.218V130.181H159.57C160.619 130.181 161.321 129.774 161.555 129.262L165.06 125.066L161.321 119.538H159.804V119.028H165.292V119.029ZM184.332 120.562C185.267 119.438 186.67 118.719 188.423 118.719C189.005 118.719 189.825 118.924 190.526 119.438L191.695 119.948L192.277 119.538V119.233H192.745V122.61H192.511V123.02H192.277C192.277 122.101 191.925 121.281 191.109 120.462C190.408 119.54 189.357 119.233 188.189 119.233C186.434 119.233 185.499 120.052 184.917 121.995C184.683 122.608 184.565 123.529 184.565 124.656C184.565 128.442 185.851 130.284 188.423 130.49C189.357 130.284 190.408 129.979 191.109 129.16L192.277 127.623V126.394H192.745V130.285H192.511V130.49H192.277C192.277 129.979 192.163 129.671 191.695 129.774L190.526 130.285L188.189 131C186.668 131 185.265 130.49 184.102 129.261C182.933 128.136 182.347 126.599 182.347 125.065L182.815 123.119C182.933 122.099 183.401 121.281 184.332 120.562ZM217.391 119.029V119.234H217.277V119.54H215.642V130.183H217.393V130.491H215.642H217.277V130.796H212.018V130.491H213.773H212.138V130.183H213.773V125.068H207.114V130.183H208.866V130.491V130.796H203.376V130.491H205.127H203.61V130.183H205.127V119.54H203.376V119.234H203.61V119.029H208.866V119.54H207.114V124.554H213.773V119.54H212.018V119.234H212.136V119.029H217.391ZM154.895 106.644H156.65V0H154.895V106.644ZM107.469 10.4395L84.106 87.3019C83.0552 90.5742 82.1207 92.622 81.1861 93.4408C80.3677 93.9542 78.9666 94.3629 77.0975 94.4647H73.5932V96.4107H96.1377V94.4647H90.5319C87.1438 94.3644 85.6249 93.3405 85.6249 91.396C85.6249 89.8586 86.2075 87.3019 87.3762 84.1269L91.6989 69.0829H115.062L123.005 94.4647H112.258V96.4107H144.265V94.4647H135.037L108.638 10.4395H107.469ZM103.38 31.0117L114.478 67.2417H92.4011L102.914 31.0117H103.38ZM117.984 119.029V119.54H116.348V130.183H117.984V130.491V130.796H112.726V130.491V130.183H114.243V119.54H112.726V119.029H117.984ZM93.5681 119.029L100.577 127.419V120.462C100.577 119.948 100.226 119.54 99.642 119.54H98.8236V119.029H102.912V119.234H102.796V119.54H101.978C101.395 119.54 101.161 119.745 101.043 119.95V130.798H100.809L91.8133 120.055V129.264C91.8133 129.777 92.2815 130.183 92.9803 130.183H93.7987V130.491V130.796H89.7101V130.491V130.183H90.5285C91.1128 130.183 91.229 129.981 91.4631 129.776V119.54H89.7101V119.029H93.5681ZM136.79 130.491H138.541H137.022V130.183H138.541V119.54H136.79V119.234H137.022V119.029H146.718L147.185 121.791H146.951V121.996H146.6C146.6 120.462 145.433 119.54 143.212 119.54H140.292V124.554H141.927C142.862 124.554 143.446 124.144 143.797 123.53V122.506H144.265V127.114H143.797C143.797 126.192 143.68 125.682 143.446 125.577C143.212 125.167 142.628 125.066 141.693 125.066H140.292V130.181H143.096L146.368 129.774C146.718 129.466 146.951 129.16 147.185 128.647L147.301 127.418V127.113H147.769V130.795H136.788V130.491H136.79ZM47.3085 119.029L51.1631 127.624L54.9014 119.029H58.4057V119.54H56.7706V130.183H58.4057V130.491V130.796H53.1484V130.491V130.183H54.9014V120.053H54.6673L50.2285 130.491H49.9944L45.5555 120.564V128.753L45.6717 129.777L46.7225 130.184H47.423V130.493H46.1381H47.3051V130.798H43.5667V130.493V130.184H44.1511C44.5013 130.184 44.7354 129.982 44.9695 129.777H45.0856V119.541H43.5667V119.031H47.3085V119.029ZM22.1943 119.029V119.54H23.9473V130.183H22.1943V130.491V130.796H27.5677V130.491V130.183H25.8147V125.068H26.9834C28.6185 125.068 29.3208 125.681 29.5531 126.91L29.7854 127.934L30.3698 129.982C30.486 130.493 31.3044 130.798 32.239 130.798L33.8741 130.698V130.288L33.0556 130.493H32.7054L33.8741 130.288V130.184L33.0556 130.288C32.4713 130.288 32.1211 129.982 32.1211 129.264L31.887 127.216C31.6529 126.192 31.3026 125.578 30.72 125.168C30.2245 124.974 29.7175 124.804 29.2011 124.658C30.9524 124.349 31.887 123.634 32.1211 122.61L32.2372 121.996C32.2372 120.053 30.72 119.029 27.7984 119.029H22.1943ZM30.1374 122.815C29.7872 124.044 28.6202 124.554 26.8672 124.554H25.8165V119.54H26.9852C29.2046 119.54 30.1392 120.462 30.1392 122.101V122.815H30.1374ZM73.9434 118.721L70.0872 129.262C69.6207 129.776 69.2705 130.181 68.9202 130.181H68.1036V130.49V130.795H71.8419V130.49H70.6732H71.9581V130.181H71.0235C70.4392 130.181 70.2051 129.979 70.2051 129.774L71.2558 127.113H75.1104L76.279 130.181H74.7619V130.49V130.795H80.1353V130.49V130.181H78.6164L74.1775 118.719H73.9434V118.721ZM73.1268 121.791L74.8798 126.396H71.3755L73.1268 121.791ZM5.95605 118.721L1.86918 129.262C1.753 129.776 1.28484 130.181 0.700508 130.181H0.116174V130.49H0.934587H0V130.795H3.85453V130.49V130.181H2.91994C2.3356 130.181 2.10152 129.979 2.10152 129.774L3.03611 127.113H7.00681L8.29165 130.181H6.54038V130.49V130.795H12.0317V130.49V130.181H10.5128L5.95605 118.721ZM7.00854 126.396H3.27019L5.0232 121.791L7.00854 126.396Z"/>
</mask>
<path d="M294.137 131.49H295.658V129.49H294.137V131.49ZM297.643 131.491H301.497V129.491H297.643V131.491ZM252.672 129.49H251.503V131.49H252.672V129.49ZM248.817 131.49H249.752V129.49H248.817V131.49ZM230.828 129.49H229.541V131.49H230.828V129.49ZM233.63 131.49H235.499V129.49H233.63V131.49ZM163.543 129.49H162.14V131.49H163.543V129.49ZM208.866 129.491H206.88V131.491H208.866V129.491ZM213.771 123.658H207.113V125.658H213.771V123.658ZM117.984 129.491H116.231V131.491H117.984V129.491ZM112.726 131.491H114.243V129.491H112.726V131.491ZM93.7987 129.491H92.6317V131.491H93.7987V129.491ZM89.7101 131.491H90.6447V129.491H89.7101V131.491ZM144.266 129.491H140.294V131.491H144.266V129.491ZM58.4057 129.491H56.7706V131.491H58.4057V129.491ZM53.1484 131.491H54.9014V129.491H53.1484V131.491ZM43.5667 131.493H44.3851V129.493H43.5667V131.493ZM22.1943 131.491H23.9473V129.491H22.1943V131.491ZM27.5677 129.491H25.8147V131.491H27.5677V129.491ZM28.1521 125.861H28.3862V123.861H28.1521V125.861ZM28.1521 125.553H28.6202V123.553H28.1521V125.553ZM27.4516 123.658H25.8165V125.658H27.4516V123.658ZM68.1036 131.49H69.0381V129.49H68.1036V131.49ZM74.7619 131.49H76.5131V129.49H74.7619V131.49ZM80.1353 129.49H78.6164V131.49H80.1353V129.49ZM3.85453 129.49H2.45178V131.49H3.85453V129.49ZM6.54038 131.49H8.52573V129.49H6.54038V131.49ZM12.0317 129.49H10.5128V131.49H12.0317V129.49ZM201.857 14.1234V16.1234H203.857V14.1234H201.857ZM192.744 14.1234V12.1234H189.504L190.956 15.0194L192.744 14.1234ZM207.461 43.496L205.673 44.392L207.323 47.6848L209.186 44.5078L207.461 43.496ZM220.547 21.1844L222.272 22.1962L222.315 22.1241L222.351 22.0487L220.547 21.1844ZM220.778 15.044L221.958 13.4293L221.815 13.3245L221.655 13.2467L220.778 15.044ZM212.368 14.1234H210.368V16.1234H212.368V14.1234ZM212.368 12.2823V10.2823H210.368V12.2823H212.368ZM235.965 12.2823H237.965V10.2823H235.965V12.2823ZM235.965 14.1234V16.1234H237.965V14.1234H235.965ZM226.973 15.8644L228.152 17.4798L228.225 17.4266L228.293 17.3671L226.973 15.8644ZM222.649 21.4928L220.927 20.4743L220.921 20.4857L222.649 21.4928ZM208.632 45.5438L206.904 44.5368L206.353 45.4809L206.851 46.4539L208.632 45.5438ZM233.631 94.4647L231.851 95.3748L232.407 96.4647H233.631V94.4647ZM242.507 94.4647H244.507V92.4647H242.507V94.4647ZM242.507 96.4107V98.4107H244.507V96.4107H242.507ZM210.849 96.4107H208.849V98.4107H210.849V96.4107ZM210.849 94.4647V92.4647H208.849V94.4647H210.849ZM220.78 94.4647V96.4647H224.049L222.56 93.5541L220.78 94.4647ZM201.625 57.0073L203.406 56.0967L201.732 52.8239L199.893 56.0068L201.625 57.0073ZM182.349 90.3721L180.617 89.3716L180.582 89.4328L180.551 89.4963L182.349 90.3721ZM191.577 94.4632H193.577V92.4632H191.577V94.4632ZM191.577 96.4092V98.4092H193.577V96.4092H191.577ZM165.994 96.4092H163.994V98.4092H165.994V96.4092ZM165.994 94.4632V92.4632H163.994V94.4632H165.994ZM168.798 94.4632V96.4632H168.832L168.867 96.462L168.798 94.4632ZM175.571 93.4393L176.212 95.3337L176.255 95.3193L176.296 95.303L175.571 93.4393ZM180.83 88.3243L179.111 87.3014L179.093 87.332L179.076 87.3632L180.83 88.3243ZM200.689 54.9595L202.407 55.9824L202.977 55.0245L202.462 54.0358L200.689 54.9595ZM179.427 14.1234L181.201 13.1998L180.641 12.1234H179.427V14.1234ZM169.965 14.1234H167.965V16.1234H169.965V14.1234ZM169.965 12.2823V10.2823H167.965V12.2823H169.965ZM201.857 12.2823H203.857V10.2823H201.857V12.2823ZM304.067 119.029H302.067V119.114L302.074 119.198L304.067 119.029ZM304.301 121.791H306.301V121.706L306.294 121.622L304.301 121.791ZM304.301 121.996V123.996H306.301V121.996H304.301ZM303.833 121.996H301.833V123.996H303.833V121.996ZM297.875 119.54V117.54H295.875V119.54H297.875ZM297.875 124.554H295.875V126.554H297.875V124.554ZM301.147 123.325L302.987 124.109L303.147 123.733V123.325H301.147ZM301.147 122.506V120.506H299.147V122.506H301.147ZM301.496 122.506H303.496V120.506H301.496V122.506ZM301.496 127.114V129.114H303.496V127.114H301.496ZM301.147 127.114L299.197 127.556L299.55 129.114H301.147V127.114ZM300.799 125.577L302.749 125.134L302.682 124.838L302.529 124.574L300.799 125.577ZM297.875 125.066V123.066H295.875V125.066H297.875ZM297.875 130.181H295.875V132.181H297.875V130.181ZM300.213 130.181V132.181H300.328L300.443 132.168L300.213 130.181ZM303.717 129.774L303.948 131.761L304.906 131.649L305.416 130.83L303.717 129.774ZM304.417 128.647L306.116 129.703L306.312 129.387L306.382 129.021L304.417 128.647ZM304.651 127.418L306.616 127.792L306.651 127.607V127.418H304.651ZM304.651 127.113V125.113H302.651V127.113H304.651ZM305 127.113H307V125.113H305V127.113ZM305 130.49V132.49H307V130.49H305ZM304.886 130.49V128.49H302.886V130.49H304.886ZM304.886 130.795V132.795H306.886V130.795H304.886ZM294.137 130.795H292.137V132.795H294.137V130.795ZM294.137 130.181V128.181H292.137V130.181H294.137ZM295.658 130.181V132.181H297.658V130.181H295.658ZM295.658 119.538H297.658V117.538H295.658V119.538ZM294.137 119.538H292.137V121.538H294.137V119.538ZM294.137 119.028V117.028H292.137V119.028H294.137ZM304.067 119.028H306.067V117.028H304.067V119.028ZM252.67 119.029H250.67V119.755L251.135 120.312L252.67 119.029ZM259.68 127.419L258.145 128.702L261.68 132.932V127.419H259.68ZM257.693 119.54H255.693V121.54H257.693V119.54ZM257.693 119.234V117.234H255.693V119.234H257.693ZM257.927 119.234V121.234H259.927V119.234H257.927ZM257.927 119.029V117.029H255.927V119.029H257.927ZM261.785 119.029H263.785V117.029H261.785V119.029ZM261.785 119.234V121.234H263.785V119.234H261.785ZM261.667 119.234V117.234H259.667V119.234H261.667ZM261.667 119.54V121.54H263.667V119.54H261.667ZM260.031 119.95L258.713 118.445L258.031 119.043V119.95H260.031ZM260.031 130.491V132.491H262.031V130.491H260.031ZM259.916 130.491V128.491H257.916V130.491H259.916ZM259.916 130.796V132.796H261.916V130.796H259.916ZM259.682 130.796L258.132 132.06L258.732 132.796H259.682V130.796ZM250.92 120.053L252.47 118.789L248.92 114.436V120.053H250.92ZM252.672 130.181H254.672V128.181H252.672V130.181ZM252.672 130.795V132.795H254.672V130.795H252.672ZM248.817 130.795H246.817V132.795H248.817V130.795ZM248.817 130.181V128.181H246.817V130.181H248.817ZM249.4 130.181L249.467 128.182L249.433 128.181H249.4V130.181ZM250.568 129.774L251.901 131.266L252.568 130.669V129.774H250.568ZM250.568 119.538H252.568V117.538H250.568V119.538ZM248.817 119.538H246.817V121.538H248.817V119.538ZM248.817 119.028V117.028H246.817V119.028H248.817ZM252.67 119.028H254.67V117.028H252.67V119.028ZM233.045 118.721L234.91 117.998L233.046 113.186L231.181 117.998L233.045 118.721ZM228.958 129.262L230.195 130.834L230.625 130.496L230.823 129.985L228.958 129.262ZM227.79 130.181V132.181H228.482L229.026 131.753L227.79 130.181ZM227.207 130.181V128.181H225.207V130.181H227.207ZM227.207 130.49H225.207V132.49H227.207V130.49ZM226.973 130.49V128.49H224.973V130.49H226.973ZM226.973 130.795H224.973V132.795H226.973V130.795ZM230.828 130.795V132.795H232.828V130.795H230.828ZM230.828 130.181H232.828V128.181H230.828V130.181ZM229.073 129.774L227.213 129.039L227.073 129.393V129.774H229.073ZM230.125 127.113V125.113H228.766L228.266 126.377L230.125 127.113ZM234.212 127.113L236.081 126.401L235.591 125.113H234.212V127.113ZM235.381 130.181V132.181H238.283L237.25 129.469L235.381 130.181ZM233.63 130.181V128.181H231.63V130.181H233.63ZM233.63 130.795H231.63V132.795H233.63V130.795ZM239.001 130.795V132.795H241.001V130.795H239.001ZM239.001 130.49H241.001V128.49H239.001V130.49ZM239.235 130.49V132.49H241.235V130.49H239.235ZM239.235 130.181H241.235V128.181H239.235V130.181ZM237.484 130.181L235.619 130.904L236.114 132.181H237.484V130.181ZM231.995 121.791L233.831 120.999L231.879 116.472L230.125 121.079L231.995 121.791ZM233.98 126.396V128.396H237.02L235.817 125.604L233.98 126.396ZM230.242 126.396L228.372 125.684L227.34 128.396H230.242V126.396ZM277.784 119.029L278.211 117.075L278 117.029H277.784V119.029ZM280.122 119.54L279.695 121.494L279.906 121.54H280.122V119.54ZM280.356 119.54V121.54L280.782 117.586L280.356 119.54ZM278.018 119.029L278.445 117.075L278.234 117.029H278.018V119.029ZM282.459 122.506V124.506H284.459V122.506H282.459ZM282.225 122.506V120.506H280.225V122.506H282.225ZM282.225 122.815V124.815H284.225V122.815H282.225ZM282.11 122.815L280.187 123.365L280.602 124.815H282.11V122.815ZM280.942 120.462L282.392 119.085L282.329 119.018L282.26 118.957L280.942 120.462ZM274.514 121.995L276.375 122.727L276.405 122.651L276.429 122.572L274.514 121.995ZM274.28 124.656L276.276 124.78L276.293 124.514L276.239 124.253L274.28 124.656ZM278.018 130.49L277.859 132.483L278.073 132.5L278.286 132.472L278.018 130.49ZM280.708 129.16L278.971 128.169L278.851 128.379L278.785 128.611L280.708 129.16ZM280.942 128.75L282.679 129.742L282.942 129.281V128.75H280.942ZM280.942 127.418H282.942V125.418H280.942V127.418ZM279.187 127.418H277.187V129.418H279.187V127.418ZM279.187 127.113V125.113H277.187V127.113H279.187ZM279.305 127.113V129.113H281.305V127.113H279.305ZM279.305 126.702V124.702H277.305V126.702H279.305ZM284.443 126.702H286.443V124.702H284.443V126.702ZM284.443 127.418V129.418H286.443V127.418H284.443ZM282.807 127.418V125.418H280.807V127.418H282.807ZM282.807 129.261L283.827 130.981L284.807 130.4V129.261H282.807ZM277.786 131L277.786 133H277.925L278.063 132.981L277.786 131ZM273.699 129.466L275.176 128.117L275.162 128.102L275.148 128.087L273.699 129.466ZM272.182 125.066L274.166 125.318L274.174 125.251L274.178 125.184L272.182 125.066ZM272.296 123.12L270.347 122.673L270.31 122.836L270.3 123.003L272.296 123.12ZM273.931 120.562L275.254 122.062L275.37 121.96L275.469 121.841L273.931 120.562ZM278.018 118.719L278.447 116.766L278.235 116.719H278.018V118.719ZM280.356 119.233L281.4 117.527L281.113 117.351L280.785 117.279L280.356 119.233ZM281.524 119.948L280.48 121.654L281.598 122.338L282.671 121.587L281.524 119.948ZM282.11 119.538L283.257 121.177L284.11 120.58V119.538H282.11ZM282.11 119.438L280.184 118.9L280.11 119.164V119.438H282.11ZM282.225 119.028V117.028H280.706L280.298 118.49L282.225 119.028ZM282.459 119.028H284.459V117.028H282.459V119.028ZM278.018 130.695L277.729 132.674L278.104 132.729L278.474 132.642L278.018 130.695ZM276.616 130.49L276.905 128.511L276.11 132.425L276.616 130.49ZM277.784 130.795L277.279 132.73L277.78 132.861L278.282 132.732L277.784 130.795ZM279.771 130.285L280.269 132.222L279.316 128.337L279.771 130.285ZM187.022 119.029V117.029H185.022V119.029H187.022ZM190.408 119.54L191.555 117.901L191.45 117.828L191.336 117.768L190.408 119.54ZM190.994 119.95L189.937 121.648L192.141 118.311L190.994 119.95ZM187.022 119.031H185.022V121.031H187.022V119.031ZM165.292 119.234V121.234H167.292V119.234H165.292ZM165.058 119.234V117.234H163.058V119.234H165.058ZM165.058 119.54V121.54H167.058V119.54H165.058ZM163.889 119.54V117.54H160.304L162.188 120.59L163.889 119.54ZM166.227 123.325L164.525 124.376L166.139 126.991L167.876 124.456L166.227 123.325ZM168.33 120.257L166.737 119.047L166.708 119.086L166.68 119.126L168.33 120.257ZM168.564 119.948L170.157 121.158L170.564 120.621V119.948H168.564ZM167.043 119.538H165.043V121.538H167.043V119.538ZM167.043 119.028V117.028H165.043V119.028H167.043ZM171.134 119.028H173.134V117.028H171.134V119.028ZM171.134 119.233V121.233H173.134V119.233H171.134ZM170.9 119.233V117.233H168.9V119.233H170.9ZM170.9 119.538V121.538H172.9V119.538H170.9ZM168.796 120.562L167.346 119.185L167.271 119.264L167.205 119.351L168.796 120.562ZM166.459 123.632L164.868 122.421L164.019 123.535L164.776 124.713L166.459 123.632ZM170.666 130.181L168.983 131.262L169.573 132.181H170.666V130.181ZM172.301 130.181H174.301V128.181H172.301V130.181ZM172.301 130.49V132.49H174.301V130.49H172.301ZM172.067 130.49H174.067V128.49H172.067V130.49ZM172.067 130.795V132.795H174.067V130.795H172.067ZM166.577 130.795H164.577V132.795H166.577V130.795ZM166.577 130.49V128.49H164.577V130.49H166.577ZM166.808 130.49H164.808V132.49H166.808V130.49ZM166.808 130.181V128.181H164.808V130.181H166.808ZM168.21 130.181V132.181H171.912L169.883 129.085L168.21 130.181ZM165.058 125.372L166.731 124.275L165.094 121.777L163.407 124.242L165.058 125.372ZM161.906 129.979L160.255 128.85L158.628 131.228L161.425 131.921L161.906 129.979ZM162.722 130.181L162.242 132.123L162.479 132.181H162.722V130.181ZM163.543 130.181H165.543V128.181H163.543V130.181ZM163.543 130.795V132.795H165.543V130.795H163.543ZM158.984 130.795H156.984V132.795H158.984V130.795ZM158.984 130.49V128.49H156.984V130.49H158.984ZM159.218 130.49H157.218V132.49H159.218V130.49ZM159.218 130.181V128.181H157.218V130.181H159.218ZM161.555 129.262L160.02 127.98L159.848 128.186L159.737 128.43L161.555 129.262ZM165.06 125.066L166.595 126.348L167.56 125.193L166.716 123.946L165.06 125.066ZM161.321 119.538L162.978 118.418L162.383 117.538H161.321V119.538ZM159.804 119.538H157.804V121.538H159.804V119.538ZM159.804 119.028V117.028H157.804V119.028H159.804ZM165.292 119.028H167.292V117.028H165.292V119.028ZM184.332 120.562L185.554 122.145L185.729 122.01L185.87 121.841L184.332 120.562ZM190.526 119.438L189.344 121.051L189.522 121.182L189.725 121.271L190.526 119.438ZM191.695 119.948L190.894 121.781L191.926 122.232L192.846 121.584L191.695 119.948ZM192.277 119.538L193.429 121.173L194.277 120.576V119.538H192.277ZM192.277 119.233V117.233H190.277V119.233H192.277ZM192.745 119.233H194.745V117.233H192.745V119.233ZM192.745 122.61V124.61H194.745V122.61H192.745ZM192.511 122.61V120.61H190.511V122.61H192.511ZM192.511 123.02V125.02H194.511V123.02H192.511ZM192.277 123.02H190.277V125.02H192.277V123.02ZM191.109 120.462L189.516 121.672L189.597 121.779L189.692 121.874L191.109 120.462ZM184.917 121.995L186.785 122.707L186.811 122.639L186.832 122.569L184.917 121.995ZM188.423 130.49L188.264 132.483L188.561 132.507L188.851 132.443L188.423 130.49ZM191.109 129.16L192.628 130.46L192.666 130.417L192.701 130.371L191.109 129.16ZM192.277 127.623L193.869 128.833L194.277 128.297V127.623H192.277ZM192.277 126.394V124.394H190.277V126.394H192.277ZM192.745 126.394H194.745V124.394H192.745V126.394ZM192.745 130.285V132.285H194.745V130.285H192.745ZM192.511 130.285V128.285H190.511V130.285H192.511ZM192.511 130.49V132.49H194.511V130.49H192.511ZM192.277 130.49H190.277V132.49H192.277V130.49ZM191.695 129.774L191.264 127.821L191.073 127.863L190.894 127.941L191.695 129.774ZM190.526 130.285L191.111 132.197L191.221 132.163L191.326 132.117L190.526 130.285ZM188.189 131V133H188.488L188.774 132.912L188.189 131ZM184.102 129.261L185.554 127.886L185.522 127.852L185.488 127.819L184.102 129.261ZM182.347 125.065L180.402 124.597L180.347 124.828V125.065H182.347ZM182.815 123.119L184.76 123.587L184.788 123.469L184.802 123.349L182.815 123.119ZM217.391 119.029H219.391V117.029H217.391V119.029ZM217.391 119.234V121.234H219.391V119.234H217.391ZM217.277 119.234V117.234H215.277V119.234H217.277ZM217.277 119.54V121.54H219.277V119.54H217.277ZM215.642 119.54V117.54H213.642V119.54H215.642ZM215.642 130.183H213.642V132.183H215.642V130.183ZM217.393 130.183H219.393V128.183H217.393V130.183ZM217.393 130.491V132.491H219.393V130.491H217.393ZM217.277 130.491H219.277V128.491H217.277V130.491ZM217.277 130.796V132.796H219.277V130.796H217.277ZM212.018 130.796H210.018V132.796H212.018V130.796ZM212.018 130.491V128.491H210.018V130.491H212.018ZM212.138 130.491H210.138V132.491H212.138V130.491ZM212.138 130.183V128.183H210.138V130.183H212.138ZM213.773 130.183V132.183H215.773V130.183H213.773ZM213.773 125.068H215.773V123.068H213.773V125.068ZM207.114 125.068V123.068H205.114V125.068H207.114ZM207.114 130.183H205.114V132.183H207.114V130.183ZM208.866 130.183H210.866V128.183H208.866V130.183ZM208.866 130.796V132.796H210.866V130.796H208.866ZM203.376 130.796H201.376V132.796H203.376V130.796ZM203.376 130.491V128.491H201.376V130.491H203.376ZM203.61 130.491H201.61V132.491H203.61V130.491ZM203.61 130.183V128.183H201.61V130.183H203.61ZM205.127 130.183V132.183H207.127V130.183H205.127ZM205.127 119.54H207.127V117.54H205.127V119.54ZM203.376 119.54H201.376V121.54H203.376V119.54ZM203.376 119.234V117.234H201.376V119.234H203.376ZM203.61 119.234V121.234H205.61V119.234H203.61ZM203.61 119.029V117.029H201.61V119.029H203.61ZM208.866 119.029H210.866V117.029H208.866V119.029ZM208.866 119.54V121.54H210.866V119.54H208.866ZM207.114 119.54V117.54H205.114V119.54H207.114ZM207.114 124.554H205.114V126.554H207.114V124.554ZM213.773 124.554V126.554H215.773V124.554H213.773ZM213.773 119.54H215.773V117.54H213.773V119.54ZM212.018 119.54H210.018V121.54H212.018V119.54ZM212.018 119.234V117.234H210.018V119.234H212.018ZM212.136 119.234V121.234H214.136V119.234H212.136ZM212.136 119.029V117.029H210.136V119.029H212.136ZM154.895 106.644H152.895V108.644H154.895V106.644ZM156.65 106.644V108.644H158.65V106.644H156.65ZM156.65 0H158.65V-2H156.65V0ZM154.895 0V-2H152.895V0H154.895ZM107.469 10.4395V8.43953H105.987L105.555 9.85789L107.469 10.4395ZM84.106 87.3019L86.0102 87.9134L86.015 87.8985L86.0196 87.8836L84.106 87.3019ZM81.1861 93.4408L82.249 95.135L82.3841 95.0502L82.504 94.9451L81.1861 93.4408ZM77.0975 94.4647V96.4647H77.1519L77.2062 96.4617L77.0975 94.4647ZM73.5932 94.4647V92.4647H71.5932V94.4647H73.5932ZM73.5932 96.4107H71.5932V98.4107H73.5932V96.4107ZM96.1377 96.4107V98.4107H98.1377V96.4107H96.1377ZM96.1377 94.4647H98.1377V92.4647H96.1377V94.4647ZM90.5319 94.4647L90.4728 96.4638L90.5024 96.4647H90.5319V94.4647ZM87.3762 84.1269L89.2531 84.8178L89.2783 84.7494L89.2984 84.6793L87.3762 84.1269ZM91.6989 69.0829V67.0829H90.1926L89.7767 68.5306L91.6989 69.0829ZM115.062 69.0829L116.971 68.4856L116.532 67.0829H115.062V69.0829ZM123.005 94.4647V96.4647H125.727L124.914 93.8674L123.005 94.4647ZM112.258 94.4647V92.4647H110.258V94.4647H112.258ZM112.258 96.4107H110.258V98.4107H112.258V96.4107ZM144.265 96.4107V98.4107H146.265V96.4107H144.265ZM144.265 94.4647H146.265V92.4647H144.265V94.4647ZM135.037 94.4647L133.129 95.0642L133.569 96.4647H135.037V94.4647ZM108.638 10.4395L110.546 9.84006L110.106 8.43953H108.638V10.4395ZM103.38 31.0117L105.293 30.426L104.859 29.0117H103.38V31.0117ZM114.478 67.2417V69.2417H117.182L116.39 66.656L114.478 67.2417ZM92.4011 67.2417L90.4804 66.6844L89.7383 69.2417H92.4011V67.2417ZM102.914 31.0117V29.0117H101.412L100.993 30.4544L102.914 31.0117ZM117.984 119.029H119.984V117.029H117.984V119.029ZM117.984 119.54V121.54H119.984V119.54H117.984ZM116.348 119.54V117.54H114.348V119.54H116.348ZM116.348 130.183H114.348V132.183H116.348V130.183ZM117.984 130.183H119.984V128.183H117.984V130.183ZM117.984 130.796V132.796H119.984V130.796H117.984ZM112.726 130.796H110.726V132.796H112.726V130.796ZM112.726 130.183V128.183H110.726V130.183H112.726ZM114.243 130.183V132.183H116.243V130.183H114.243ZM114.243 119.54H116.243V117.54H114.243V119.54ZM112.726 119.54H110.726V121.54H112.726V119.54ZM112.726 119.029V117.029H110.726V119.029H112.726ZM93.5681 119.029L95.103 117.747L94.5034 117.029H93.5681V119.029ZM100.577 127.419L99.0417 128.702L102.577 132.933V127.419H100.577ZM98.8236 119.54H96.8236V121.54H98.8236V119.54ZM98.8236 119.029V117.029H96.8236V119.029H98.8236ZM102.912 119.029H104.912V117.029H102.912V119.029ZM102.912 119.234V121.234H104.912V119.234H102.912ZM102.796 119.234V117.234H100.796V119.234H102.796ZM102.796 119.54V121.54H104.796V119.54H102.796ZM101.043 119.95L99.3092 118.953L99.043 119.416V119.95H101.043ZM101.043 130.798V132.798H103.043V130.798H101.043ZM100.809 130.798L99.2755 132.082L99.8751 132.798H100.809V130.798ZM91.8133 120.055L93.3468 118.771L89.8133 114.551V120.055H91.8133ZM93.7987 130.183H95.7987V128.183H93.7987V130.183ZM93.7987 130.796V132.796H95.7987V130.796H93.7987ZM89.7101 130.796H87.7101V132.796H89.7101V130.796ZM89.7101 130.183V128.183H87.7101V130.183H89.7101ZM91.4631 129.776L92.781 131.28L93.4631 130.682V129.776H91.4631ZM91.4631 119.54H93.4631V117.54H91.4631V119.54ZM89.7101 119.54H87.7101V121.54H89.7101V119.54ZM89.7101 119.029V117.029H87.7101V119.029H89.7101ZM137.022 130.491H135.022V132.491H137.022V130.491ZM137.022 130.183V128.183H135.022V130.183H137.022ZM138.541 130.183V132.183H140.541V130.183H138.541ZM138.541 119.54H140.541V117.54H138.541V119.54ZM136.79 119.54H134.79V121.54H136.79V119.54ZM136.79 119.234V117.234H134.79V119.234H136.79ZM137.022 119.234V121.234H139.022V119.234H137.022ZM137.022 119.029V117.029H135.022V119.029H137.022ZM146.718 119.029L148.69 118.696L148.409 117.029H146.718V119.029ZM147.185 121.791V123.791H149.551L149.157 121.458L147.185 121.791ZM146.951 121.791V119.791H144.951V121.791H146.951ZM146.951 121.996V123.996H148.951V121.996H146.951ZM146.6 121.996H144.6V123.996H146.6V121.996ZM140.292 119.54V117.54H138.292V119.54H140.292ZM140.292 124.554H138.292V126.554H140.292V124.554ZM143.797 123.53L145.534 124.522L145.797 124.061V123.53H143.797ZM143.797 122.506V120.506H141.797V122.506H143.797ZM144.265 122.506H146.265V120.506H144.265V122.506ZM144.265 127.114V129.114H146.265V127.114H144.265ZM143.797 127.114H141.797V129.114H143.797V127.114ZM143.446 125.577L141.709 126.568L142.033 127.135L142.629 127.402L143.446 125.577ZM140.292 125.066V123.066H138.292V125.066H140.292ZM140.292 130.181H138.292V132.181H140.292V130.181ZM143.096 130.181V132.181H143.22L143.343 132.166L143.096 130.181ZM146.368 129.774L146.615 131.759L147.227 131.683L147.69 131.275L146.368 129.774ZM147.185 128.647L149.004 129.476L149.144 129.17L149.176 128.835L147.185 128.647ZM147.301 127.418L149.292 127.606L149.301 127.512V127.418H147.301ZM147.301 127.113V125.113H145.301V127.113H147.301ZM147.769 127.113H149.769V125.113H147.769V127.113ZM147.769 130.795V132.795H149.769V130.795H147.769ZM136.788 130.795H134.788V132.795H136.788V130.795ZM136.788 130.491V128.491H134.788V130.491H136.788ZM47.3085 119.029L49.1334 118.211L45.3085 119.029H47.3085ZM51.1631 127.624L49.3382 128.443L51.1911 132.575L52.9971 128.422L51.1631 127.624ZM54.9014 119.029V117.029H53.5903L53.0674 118.231L54.9014 119.029ZM58.4057 119.029H60.4057V117.029H58.4057V119.029ZM58.4057 119.54V121.54H60.4057V119.54H58.4057ZM56.7706 119.54V117.54H54.7706V119.54H56.7706ZM56.7706 130.183H54.7706V132.183H56.7706V130.183ZM58.4057 130.183H60.4057V128.183H58.4057V130.183ZM58.4057 130.796V132.796H60.4057V130.796H58.4057ZM53.1484 130.796H51.1484V132.796H53.1484V130.796ZM53.1484 130.183V128.183H51.1484V130.183H53.1484ZM54.9014 130.183V132.183H56.9014V130.183H54.9014ZM54.9014 120.053H56.9014V118.053H54.9014V120.053ZM54.6673 120.053V118.053H53.3445L52.8268 119.27L54.6673 120.053ZM50.2285 130.491V132.491H51.5513L52.069 131.274L50.2285 130.491ZM49.9944 130.491L48.1686 131.307L48.6978 132.491H49.9944V130.491ZM45.5555 120.564L47.3813 119.747L43.5555 120.564H45.5555ZM45.5555 128.753H43.5555V128.866L43.5683 128.979L45.5555 128.753ZM45.6717 129.777L43.6845 130.003L43.8209 131.205L44.9491 131.642L45.6717 129.777ZM46.7225 130.184L45.9999 132.049L46.3486 132.184H46.7225V130.184ZM47.423 130.184H49.423V128.184H47.423V130.184ZM47.423 130.493V132.493H49.423V130.493H47.423ZM47.3051 130.493H49.3051V128.493H47.3051V130.493ZM47.3051 130.798V132.798H49.3051V130.798H47.3051ZM43.5667 130.798H41.5667V132.798H43.5667V130.798ZM43.5667 130.184V128.184H41.5667V130.184H43.5667ZM44.9695 129.777V127.777H44.2173L43.6515 128.273L44.9695 129.777ZM45.0856 129.777V131.777H47.0856V129.777H45.0856ZM45.0856 119.541H47.0856V117.541H45.0856V119.541ZM43.5667 119.541H41.5667V121.541H43.5667V119.541ZM43.5667 119.031V117.031H41.5667V119.031H43.5667ZM47.3085 119.031V121.031H49.3085V119.031H47.3085ZM22.1943 119.029V117.029H20.1943V119.029H22.1943ZM22.1943 119.54H20.1943V121.54H22.1943V119.54ZM23.9473 119.54H25.9473V117.54H23.9473V119.54ZM23.9473 130.183V132.183H25.9473V130.183H23.9473ZM22.1943 130.183V128.183H20.1943V130.183H22.1943ZM22.1943 130.796H20.1943V132.796H22.1943V130.796ZM27.5677 130.796V132.796H29.5677V130.796H27.5677ZM27.5677 130.183H29.5677V128.183H27.5677V130.183ZM25.8147 130.183H23.8147V132.183H25.8147V130.183ZM25.8147 125.068V123.068H23.8147V125.068H25.8147ZM29.5531 126.91L27.5879 127.282L27.5947 127.318L27.6027 127.353L29.5531 126.91ZM29.7854 127.934L27.835 128.377L27.8472 128.43L27.8622 128.483L29.7854 127.934ZM30.3698 129.982L32.3199 129.538L32.3079 129.485L32.293 129.433L30.3698 129.982ZM32.239 130.798V132.798H32.3002L32.3613 132.794L32.239 130.798ZM33.8741 130.698L33.9964 132.694L35.8741 132.579V130.698H33.8741ZM33.0556 130.493V132.493H33.3024L33.5418 132.433L33.0556 130.493ZM32.7054 130.493L32.3597 128.523L32.7054 132.493V130.493ZM33.8741 130.184H35.8741V127.916L33.6236 128.2L33.8741 130.184ZM33.0556 130.288V132.288H33.1814L33.3061 132.272L33.0556 130.288ZM32.1211 129.264H34.1211V129.15L34.1081 129.037L32.1211 129.264ZM31.887 127.216L33.874 126.989L33.8614 126.878L33.8367 126.77L31.887 127.216ZM30.72 125.168L31.8714 123.533L31.6737 123.393L31.4485 123.305L30.72 125.168ZM29.2011 124.658L28.8543 122.688L28.6561 126.582L29.2011 124.658ZM32.1211 122.61L34.0707 123.056L34.0792 123.019L34.0862 122.982L32.1211 122.61ZM32.2372 121.996L34.2023 122.368L34.2372 122.184V121.996H32.2372ZM30.1374 122.815V120.815H28.6278L28.214 122.267L30.1374 122.815ZM25.8165 124.554H23.8165V126.554H25.8165V124.554ZM25.8165 119.54V117.54H23.8165V119.54H25.8165ZM30.1392 122.815V124.815H32.1392V122.815H30.1392ZM73.9434 118.721L75.8217 119.408L75.9434 119.075V118.721H73.9434ZM70.0872 129.262L71.5676 130.607L71.8309 130.317L71.9654 129.949L70.0872 129.262ZM68.1036 130.181V128.181H66.1036V130.181H68.1036ZM68.1036 130.795H66.1036V132.795H68.1036V130.795ZM71.8419 130.795V132.795H73.8419V130.795H71.8419ZM71.8419 130.49H73.8419V128.49H71.8419V130.49ZM71.9581 130.49V132.49H73.9581V130.49H71.9581ZM71.9581 130.181H73.9581V128.181H71.9581V130.181ZM70.2051 129.774L68.3448 129.04L68.2051 129.394V129.774H70.2051ZM71.2558 127.113V125.113H69.8952L69.3956 126.378L71.2558 127.113ZM75.1104 127.113L76.9794 126.401L76.4888 125.113H75.1104V127.113ZM76.279 130.181V132.181H79.1809L78.1481 129.469L76.279 130.181ZM74.7619 130.181V128.181H72.7619V130.181H74.7619ZM74.7619 130.795H72.7619V132.795H74.7619V130.795ZM80.1353 130.795V132.795H82.1353V130.795H80.1353ZM80.1353 130.181H82.1353V128.181H80.1353V130.181ZM78.6164 130.181L76.7514 130.903L77.2462 132.181H78.6164V130.181ZM74.1775 118.719L76.0425 117.997L75.5477 116.719H74.1775V118.719ZM73.9434 118.719V116.719H71.9434V118.719H73.9434ZM73.1268 121.791L74.9959 121.079L73.1258 116.167L71.2574 121.08L73.1268 121.791ZM74.8798 126.396V128.396H77.7812L76.7489 125.684L74.8798 126.396ZM71.3755 126.396L69.5061 125.685L68.475 128.396H71.3755V126.396ZM5.95605 118.721L7.81453 117.982L5.93256 113.249L4.09129 117.998L5.95605 118.721ZM1.86918 129.262L0.00441963 128.539L-0.0489427 128.677L-0.0815187 128.821L1.86918 129.262ZM0.116174 130.181V128.181H-1.88383V130.181H0.116174ZM0.116174 130.49H-1.88383V132.49H0.116174V130.49ZM0 130.49V128.49H-2V130.49H0ZM0 130.795H-2V132.795H0V130.795ZM3.85453 130.795V132.795H5.85453V130.795H3.85453ZM3.85453 130.181H5.85453V128.181H3.85453V130.181ZM2.10152 129.774L0.214483 129.111L0.101523 129.433V129.774H2.10152ZM3.03611 127.113V125.113H1.61869L1.14907 126.45L3.03611 127.113ZM7.00681 127.113L8.85163 126.34L8.33765 125.113H7.00681V127.113ZM8.29165 130.181V132.181H11.2973L10.1365 129.409L8.29165 130.181ZM6.54038 130.181V128.181H4.54038V130.181H6.54038ZM6.54038 130.795H4.54038V132.795H6.54038V130.795ZM12.0317 130.795V132.795H14.0317V130.795H12.0317ZM12.0317 130.181H14.0317V128.181H12.0317V130.181ZM10.5128 130.181L8.65434 130.92L9.15574 132.181H10.5128V130.181ZM7.00854 126.396V128.396H10.0489L8.8451 125.604L7.00854 126.396ZM3.27019 126.396L1.40107 125.684L0.368722 128.396H3.27019V126.396ZM5.0232 121.791L6.85975 120.999L4.90798 116.472L3.15407 121.079L5.0232 121.791ZM201.857 12.1234H192.744V16.1234H201.857V12.1234ZM190.956 15.0194L205.673 44.392L209.249 42.6001L194.532 13.2275L190.956 15.0194ZM209.186 44.5078L222.272 22.1962L218.822 20.1726L205.736 42.4842L209.186 44.5078ZM222.351 22.0487C222.818 21.0737 223.2 20.2408 223.466 19.5419C223.717 18.8792 223.946 18.1362 223.946 17.3987H219.946C219.946 17.3768 219.941 17.5551 219.727 18.1207C219.525 18.6499 219.207 19.3521 218.744 20.3201L222.351 22.0487ZM223.946 17.3987C223.946 16.5212 223.777 15.7127 223.376 14.9867C222.981 14.2697 222.443 13.7836 221.958 13.4293L219.598 16.6588C219.813 16.8165 219.86 16.8932 219.873 16.9182C219.882 16.9343 219.946 17.0472 219.946 17.3987H223.946ZM221.655 13.2467C220.264 12.5679 218.429 12.1234 215.64 12.1234V16.1234C217.995 16.1234 219.194 16.4963 219.901 16.8414L221.655 13.2467ZM215.64 12.1234H212.368V16.1234H215.64V12.1234ZM214.368 14.1234V12.2823H210.368V14.1234H214.368ZM212.368 14.2823H235.965V10.2823H212.368V14.2823ZM233.965 12.2823V14.1234H237.965V12.2823H233.965ZM235.965 12.1234H232.463V16.1234H235.965V12.1234ZM232.463 12.1234C229.82 12.1234 227.534 12.7103 225.653 14.3617L228.293 17.3671C229.211 16.5605 230.431 16.1234 232.463 16.1234V12.1234ZM225.794 14.2489C224.014 15.5483 222.543 17.7442 220.927 20.4743L224.37 22.5113C226.025 19.7148 227.127 18.2282 228.152 17.4798L225.794 14.2489ZM220.921 20.4857L206.904 44.5368L210.36 46.5509L224.377 22.4999L220.921 20.4857ZM206.851 46.4539L231.851 95.3748L235.412 93.5546L210.413 44.6337L206.851 46.4539ZM233.631 96.4647H242.507V92.4647H233.631V96.4647ZM240.507 94.4647V96.4107H244.507V94.4647H240.507ZM242.507 94.4107H210.849V98.4107H242.507V94.4107ZM212.849 96.4107V94.4647H208.849V96.4107H212.849ZM210.849 96.4647H220.78V92.4647H210.849V96.4647ZM222.56 93.5541L203.406 56.0967L199.844 57.9178L218.999 95.3753L222.56 93.5541ZM199.893 56.0068L180.617 89.3716L184.081 91.3726L203.357 58.0078L199.893 56.0068ZM180.551 89.4963C180.168 90.2814 179.766 91.3328 179.766 92.3151H183.766C183.766 92.3328 183.768 92.2373 183.838 92.007C183.904 91.7939 184.008 91.5338 184.147 91.2479L180.551 89.4963ZM179.766 92.3151C179.766 93.0765 179.977 93.825 180.45 94.4749C180.908 95.1039 181.521 95.5175 182.134 95.791C183.303 96.3127 184.789 96.4632 186.321 96.4632V92.4632C184.933 92.4632 184.142 92.3067 183.764 92.1381C183.603 92.0663 183.624 92.0388 183.684 92.1211C183.76 92.2245 183.766 92.3208 183.766 92.3151H179.766ZM186.321 96.4632H191.577V92.4632H186.321V96.4632ZM189.577 94.4632V96.4092H193.577V94.4632H189.577ZM191.577 94.4092H165.994V98.4092H191.577V94.4092ZM167.994 96.4092V94.4632H163.994V96.4092H167.994ZM165.994 96.4632H168.798V92.4632H165.994V96.4632ZM168.867 96.462C171.911 96.3575 174.453 95.9289 176.212 95.3337L174.93 91.5448C173.654 91.9766 171.525 92.3684 168.729 92.4643L168.867 96.462ZM176.296 95.303C178.969 94.2625 181.035 92.1116 182.584 89.2854L179.076 87.3632C177.823 89.6504 176.379 90.9783 174.845 91.5755L176.296 95.303ZM182.548 89.3472L202.407 55.9824L198.97 53.9365L179.111 87.3014L182.548 89.3472ZM202.462 54.0358L181.201 13.1998L177.653 15.0471L198.915 55.8831L202.462 54.0358ZM179.427 12.1234H169.965V16.1234H179.427V12.1234ZM171.965 14.1234V12.2823H167.965V14.1234H171.965ZM169.965 14.2823H201.857V10.2823H169.965V14.2823ZM199.857 12.2823V14.1234H203.857V12.2823H199.857ZM302.074 119.198L302.308 121.96L306.294 121.622L306.06 118.86L302.074 119.198ZM302.301 121.791V121.996H306.301V121.791H302.301ZM304.301 119.996H303.833V123.996H304.301V119.996ZM305.833 121.996C305.833 120.664 305.295 119.436 304.197 118.601C303.173 117.822 301.869 117.54 300.561 117.54V121.54C301.357 121.54 301.689 121.719 301.775 121.784C301.794 121.799 301.802 121.808 301.804 121.811C301.806 121.813 301.807 121.814 301.808 121.818C301.81 121.821 301.833 121.869 301.833 121.996H305.833ZM300.561 117.54H297.875V121.54H300.561V117.54ZM295.875 119.54V124.554H299.875V119.54H295.875ZM297.875 126.554H299.044V122.554H297.875V126.554ZM299.044 126.554C300.534 126.554 302.238 125.868 302.987 124.109L299.307 122.542C299.308 122.539 299.315 122.526 299.327 122.513C299.339 122.5 299.345 122.498 299.337 122.502C299.317 122.514 299.227 122.554 299.044 122.554V126.554ZM303.147 123.325V122.506H299.147V123.325H303.147ZM301.147 124.506H301.496V120.506H301.147V124.506ZM299.496 122.506V127.114H303.496V122.506H299.496ZM301.496 125.114H301.147V129.114H301.496V125.114ZM303.098 126.672L302.749 125.134L298.848 126.019L299.197 127.556L303.098 126.672ZM302.529 124.574C302.048 123.743 301.279 123.387 300.688 123.233C300.135 123.088 299.541 123.066 299.044 123.066V127.066C299.246 127.066 299.398 127.072 299.513 127.081C299.631 127.091 299.677 127.103 299.677 127.103C299.677 127.103 299.587 127.08 299.461 126.998C299.323 126.907 299.177 126.767 299.068 126.579L302.529 124.574ZM299.044 123.066H297.875V127.066H299.044V123.066ZM295.875 125.066V130.181H299.875V125.066H295.875ZM297.875 132.181H300.213V128.181H297.875V132.181ZM300.443 132.168L303.948 131.761L303.486 127.787L299.982 128.195L300.443 132.168ZM305.416 130.83L306.116 129.703L302.719 127.591L302.018 128.718L305.416 130.83ZM306.382 129.021L306.616 127.792L302.687 127.044L302.453 128.273L306.382 129.021ZM306.651 127.418V127.113H302.651V127.418H306.651ZM304.651 129.113H305V125.113H304.651V129.113ZM303 127.113V130.49H307V127.113H303ZM305 128.49H304.886V132.49H305V128.49ZM302.886 130.49V130.795H306.886V130.49H302.886ZM304.886 128.795H294.137V132.795H304.886V128.795ZM296.137 130.795V130.49H292.137V130.795H296.137ZM296.137 130.49V130.181H292.137V130.49H296.137ZM294.137 132.181H295.658V128.181H294.137V132.181ZM297.658 130.181V119.538H293.658V130.181H297.658ZM295.658 117.538H294.137V121.538H295.658V117.538ZM296.137 119.538V119.028H292.137V119.538H296.137ZM294.137 121.028H304.067V117.028H294.137V121.028ZM302.067 119.028V119.029H306.067V119.028H302.067ZM251.135 120.312L258.145 128.702L261.215 126.137L254.205 117.747L251.135 120.312ZM261.68 127.419V120.462H257.68V127.419H261.68ZM261.68 120.462C261.68 119.746 261.43 118.998 260.869 118.418C260.296 117.825 259.526 117.54 258.746 117.54V121.54C258.548 121.54 258.245 121.458 257.994 121.198C257.754 120.951 257.68 120.664 257.68 120.462H261.68ZM258.746 117.54H257.693V121.54H258.746V117.54ZM259.693 119.54V119.234H255.693V119.54H259.693ZM257.693 121.234H257.927V117.234H257.693V121.234ZM259.927 119.234V119.029H255.927V119.234H259.927ZM257.927 121.029H261.785V117.029H257.927V121.029ZM259.785 119.029V119.234H263.785V119.029H259.785ZM261.785 117.234H261.667V121.234H261.785V117.234ZM259.667 119.234V119.54H263.667V119.234H259.667ZM261.667 117.54H260.851V121.54H261.667V117.54ZM260.851 117.54C259.643 117.54 258.871 118.307 258.713 118.445L261.348 121.454C261.413 121.397 261.436 121.378 261.454 121.364C261.467 121.353 261.448 121.37 261.404 121.395C261.358 121.422 261.282 121.461 261.179 121.491C261.074 121.523 260.962 121.54 260.851 121.54V117.54ZM258.031 119.95V130.491H262.031V119.95H258.031ZM260.031 128.491H259.916V132.491H260.031V128.491ZM257.916 130.491V130.796H261.916V130.491H257.916ZM259.916 128.796H259.682V132.796H259.916V128.796ZM261.232 129.532L252.47 118.789L249.371 121.317L258.132 132.06L261.232 129.532ZM248.92 120.053V129.262H252.92V120.053H248.92ZM248.92 129.262C248.92 129.989 249.183 130.81 249.882 131.421C250.549 132.003 251.371 132.181 252.089 132.181V128.181C251.987 128.181 252.225 128.156 252.513 128.408C252.832 128.687 252.92 129.048 252.92 129.262H248.92ZM252.089 132.181H252.672V128.181H252.089V132.181ZM250.672 130.181V130.49H254.672V130.181H250.672ZM250.672 130.49V130.795H254.672V130.49H250.672ZM252.672 128.795H248.817V132.795H252.672V128.795ZM250.817 130.795V130.49H246.817V130.795H250.817ZM250.817 130.49V130.181H246.817V130.49H250.817ZM248.817 132.181H249.4V128.181H248.817V132.181ZM249.333 132.18C249.792 132.195 250.253 132.127 250.691 131.975L249.375 128.197C249.411 128.185 249.441 128.181 249.467 128.182L249.333 132.18ZM250.691 131.975C251.129 131.822 251.543 131.585 251.901 131.266L249.236 128.283C249.29 128.234 249.34 128.209 249.375 128.197L250.691 131.975ZM252.568 129.774V119.538H248.568V129.774H252.568ZM250.568 117.538H248.817V121.538H250.568V117.538ZM250.817 119.538V119.028H246.817V119.538H250.817ZM248.817 121.028H252.67V117.028H248.817V121.028ZM250.67 119.028V119.029H254.67V119.028H250.67ZM231.181 117.998L227.094 128.539L230.823 129.985L234.91 119.444L231.181 117.998ZM227.722 127.69L226.553 128.609L229.026 131.753L230.195 130.834L227.722 127.69ZM227.79 128.181H227.207V132.181H227.79V128.181ZM225.207 130.181V130.49H229.207V130.181H225.207ZM227.207 132.49H227.908V128.49H227.207V132.49ZM227.908 128.49H226.973V132.49H227.908V128.49ZM224.973 130.49V130.795H228.973V130.49H224.973ZM226.973 132.795H230.828V128.795H226.973V132.795ZM232.828 130.795V130.49H228.828V130.795H232.828ZM232.828 130.49V130.181H228.828V130.49H232.828ZM230.828 128.181H229.893V132.181H230.828V128.181ZM229.893 128.181C229.795 128.181 229.979 128.158 230.263 128.321C230.591 128.511 231.073 128.995 231.073 129.774H227.073C227.073 130.758 227.674 131.446 228.266 131.788C228.814 132.103 229.408 132.181 229.893 132.181V128.181ZM230.933 130.51L231.985 127.848L228.266 126.377L227.213 129.039L230.933 130.51ZM230.125 129.113H234.212V125.113H230.125V129.113ZM232.343 127.824L233.512 130.893L237.25 129.469L236.081 126.401L232.343 127.824ZM235.381 128.181H233.63V132.181H235.381V128.181ZM231.63 130.181V130.49H235.63V130.181H231.63ZM231.63 130.49V130.795H235.63V130.49H231.63ZM233.63 132.795H239.001V128.795H233.63V132.795ZM241.001 130.795V130.49H237.001V130.795H241.001ZM239.001 128.49H237.484V132.49H239.001V128.49ZM237.484 132.49H239.235V128.49H237.484V132.49ZM241.235 130.49V130.181H237.235V130.49H241.235ZM239.235 128.181H237.484V132.181H239.235V128.181ZM239.349 129.459L234.91 117.998L231.18 119.443L235.619 130.904L239.349 129.459ZM230.158 122.583L232.143 127.187L235.817 125.604L233.831 120.999L230.158 122.583ZM233.98 124.396H230.242V128.396H233.98V124.396ZM232.111 127.107L233.864 122.503L230.125 121.079L228.372 125.684L232.111 127.107ZM277.358 120.983L279.695 121.494L280.548 117.586L278.211 117.075L277.358 120.983ZM280.122 121.54H280.356V117.54H280.122V121.54ZM280.782 117.586L278.445 117.075L277.592 120.983L279.929 121.494L280.782 117.586ZM278.018 117.029H276.616V121.029H278.018V117.029ZM276.616 121.029H277.784V117.029H276.616V121.029ZM280.459 119.029V122.506H284.459V119.029H280.459ZM282.459 120.506H282.225V124.506H282.459V120.506ZM280.225 122.506V122.815H284.225V122.506H280.225ZM282.225 120.815H282.11V124.815H282.225V120.815ZM284.033 122.265C283.785 121.396 283.328 120.071 282.392 119.085L279.491 121.839C279.72 122.08 279.968 122.596 280.187 123.365L284.033 122.265ZM282.26 118.957C280.841 117.715 279.438 117.233 277.786 117.233V121.233C278.471 121.233 278.937 121.364 279.624 121.966L282.26 118.957ZM277.786 117.233C276.587 117.233 275.405 117.521 274.417 118.362C273.475 119.164 272.945 120.272 272.599 121.417L276.429 122.572C276.669 121.774 276.9 121.501 277.009 121.408C277.073 121.354 277.234 121.233 277.786 121.233V117.233ZM272.653 121.262C272.176 122.474 272.059 123.784 272.321 125.059L276.239 124.253C276.135 123.748 276.179 123.225 276.375 122.727L272.653 121.262ZM272.284 124.533C272.153 126.644 272.45 128.557 273.436 130.029C274.483 131.591 276.09 132.342 277.859 132.483L278.177 128.496C277.377 128.432 276.998 128.159 276.759 127.803C276.46 127.355 276.173 126.454 276.276 124.78L272.284 124.533ZM278.286 132.472C279.072 132.366 279.933 132.21 280.668 131.878C281.476 131.514 282.304 130.852 282.631 129.71L278.785 128.611C278.819 128.49 278.889 128.371 278.975 128.283C279.049 128.209 279.089 128.202 279.023 128.232C278.955 128.263 278.824 128.309 278.598 128.362C278.375 128.413 278.098 128.461 277.751 128.508L278.286 132.472ZM282.445 130.152L282.679 129.742L279.205 127.759L278.971 128.169L282.445 130.152ZM282.942 128.75V127.418H278.942V128.75H282.942ZM280.942 125.418H279.187V129.418H280.942V125.418ZM281.187 127.418V127.113H277.187V127.418H281.187ZM279.187 129.113H279.305V125.113H279.187V129.113ZM281.305 127.113V126.702H277.305V127.113H281.305ZM279.305 128.702H284.443V124.702H279.305V128.702ZM282.443 126.702V127.418H286.443V126.702H282.443ZM284.443 125.418H282.807V129.418H284.443V125.418ZM280.807 127.418V129.261H284.807V127.418H280.807ZM281.788 127.54C280.515 128.294 279.055 128.803 277.509 129.019L278.063 132.981C280.114 132.694 282.082 132.015 283.827 130.981L281.788 127.54ZM277.786 129C276.414 129 275.624 128.608 275.176 128.117L272.222 130.814C273.643 132.371 275.655 133 277.786 133L277.786 129ZM275.148 128.087C274.321 127.218 274.02 126.466 274.166 125.318L270.198 124.814C269.876 127.349 270.74 129.256 272.25 130.844L275.148 128.087ZM274.178 125.184L274.293 123.238L270.3 123.003L270.185 124.949L274.178 125.184ZM274.246 123.567C274.36 123.069 274.652 122.593 275.254 122.062L272.609 119.062C271.581 119.968 270.701 121.13 270.347 122.673L274.246 123.567ZM275.469 121.841C276.02 121.178 276.857 120.719 278.018 120.719V116.719C275.68 116.719 273.712 117.698 272.394 119.283L275.469 121.841ZM277.589 120.673L279.926 121.186L280.785 117.279L278.447 116.766L277.589 120.673ZM279.311 120.938L280.48 121.654L282.569 118.243L281.4 117.527L279.311 120.938ZM282.671 121.587L283.257 121.177L280.964 117.9L280.378 118.31L282.671 121.587ZM284.11 119.538V119.438H280.11V119.538H284.11ZM284.037 119.975L284.151 119.565L280.298 118.49L280.184 118.9L284.037 119.975ZM282.225 121.028H282.459V117.028H282.225V121.028ZM280.459 119.028V119.029H284.459V119.028H280.459ZM278.308 128.716L276.905 128.511L276.326 132.469L277.729 132.674L278.308 128.716ZM276.11 132.425L277.279 132.73L278.29 128.86L277.121 128.555L276.11 132.425ZM278.282 132.732L280.269 132.222L279.274 128.347L277.287 128.858L278.282 132.732ZM279.316 128.337L277.563 128.747L278.474 132.642L280.227 132.232L279.316 128.337ZM187.022 121.029H188.19V117.029H187.022V121.029ZM188.19 121.029C188.711 121.029 189.207 121.168 189.48 121.311L191.336 117.768C190.444 117.3 189.303 117.029 188.19 117.029V121.029ZM189.261 121.178L189.847 121.588L192.141 118.311L191.555 117.901L189.261 121.178ZM192.051 118.252C191.176 117.707 189.953 117.031 188.424 117.031V121.031C188.765 121.031 189.172 121.172 189.937 121.648L192.051 118.252ZM188.424 117.031H187.022V121.031H188.424V117.031ZM189.022 119.031V119.029H185.022V119.031H189.022ZM163.292 119.029V119.234H167.292V119.029H163.292ZM165.292 117.234H165.058V121.234H165.292V117.234ZM163.058 119.234V119.54H167.058V119.234H163.058ZM165.058 117.54H163.889V121.54H165.058V117.54ZM162.188 120.59L164.525 124.376L167.928 122.275L165.591 118.489L162.188 120.59ZM167.876 124.456L169.98 121.387L166.68 119.126L164.577 122.195L167.876 124.456ZM169.923 121.466L170.157 121.158L166.971 118.739L166.737 119.047L169.923 121.466ZM170.564 119.948C170.564 118.644 169.534 118.032 169.178 117.862C168.678 117.623 168.131 117.538 167.629 117.538V121.538C167.71 121.538 167.631 121.556 167.452 121.471C167.364 121.428 167.18 121.326 166.995 121.115C166.804 120.897 166.564 120.498 166.564 119.948H170.564ZM167.629 117.538H167.043V121.538H167.629V117.538ZM169.043 119.538V119.028H165.043V119.538H169.043ZM167.043 121.028H171.134V117.028H167.043V121.028ZM169.134 119.028V119.233H173.134V119.028H169.134ZM171.134 117.233H170.9V121.233H171.134V117.233ZM168.9 119.233V119.538H172.9V119.233H168.9ZM170.9 117.538H170.314V121.538H170.9V117.538ZM170.314 117.538C169.47 117.538 168.82 117.863 168.338 118.233C167.945 118.534 167.571 118.948 167.346 119.185L170.247 121.939C170.411 121.766 170.513 121.656 170.616 121.553C170.713 121.455 170.758 121.418 170.772 121.407C170.781 121.4 170.733 121.439 170.635 121.477C170.528 121.518 170.414 121.538 170.314 121.538V117.538ZM167.205 119.351L164.868 122.421L168.05 124.844L170.388 121.773L167.205 119.351ZM164.776 124.713L168.983 131.262L172.348 129.1L168.142 122.551L164.776 124.713ZM170.666 132.181H172.301V128.181H170.666V132.181ZM170.301 130.181V130.49H174.301V130.181H170.301ZM172.301 128.49H170.546V132.49H172.301V128.49ZM170.546 132.49H172.067V128.49H170.546V132.49ZM170.067 130.49V130.795H174.067V130.49H170.067ZM172.067 128.795H166.577V132.795H172.067V128.795ZM168.577 130.795V130.49H164.577V130.795H168.577ZM166.577 132.49H168.328V128.49H166.577V132.49ZM168.328 128.49H166.808V132.49H168.328V128.49ZM168.808 130.49V130.181H164.808V130.49H168.808ZM166.808 132.181H168.21V128.181H166.808V132.181ZM169.883 129.085L166.731 124.275L163.385 126.468L166.538 131.278L169.883 129.085ZM163.407 124.242L160.255 128.85L163.556 131.108L166.709 126.501L163.407 124.242ZM161.425 131.921L162.242 132.123L163.203 128.24L162.386 128.038L161.425 131.921ZM162.722 132.181H163.543V128.181H162.722V132.181ZM161.543 130.181V130.49H165.543V130.181H161.543ZM161.543 130.49V130.795H165.543V130.49H161.543ZM163.543 128.795H158.984V132.795H163.543V128.795ZM160.984 130.795V130.49H156.984V130.795H160.984ZM158.984 132.49H160.153V128.49H158.984V132.49ZM160.153 128.49H159.218V132.49H160.153V128.49ZM161.218 130.49V130.181H157.218V130.49H161.218ZM159.218 132.181H159.57V128.181H159.218V132.181ZM159.57 132.181C161.015 132.181 162.68 131.613 163.374 130.094L159.737 128.43C159.852 128.178 160.005 128.109 159.983 128.12C159.969 128.127 159.844 128.181 159.57 128.181V132.181ZM163.091 130.544L166.595 126.348L163.525 123.784L160.02 127.98L163.091 130.544ZM166.716 123.946L162.978 118.418L159.665 120.658L163.403 126.187L166.716 123.946ZM161.321 117.538H159.804V121.538H161.321V117.538ZM161.804 119.538V119.028H157.804V119.538H161.804ZM159.804 121.028H165.292V117.028H159.804V121.028ZM163.292 119.028V119.029H167.292V119.028H163.292ZM185.87 121.841C186.421 121.179 187.257 120.719 188.423 120.719V116.719C186.082 116.719 184.113 117.697 182.794 119.283L185.87 121.841ZM188.423 120.719C188.493 120.719 188.641 120.734 188.828 120.793C189.009 120.851 189.189 120.937 189.344 121.051L191.708 117.825C190.642 117.043 189.401 116.719 188.423 116.719V120.719ZM189.725 121.271L190.894 121.781L192.495 118.115L191.326 117.605L189.725 121.271ZM192.846 121.584L193.429 121.173L191.126 117.903L190.543 118.313L192.846 121.584ZM194.277 119.538V119.233H190.277V119.538H194.277ZM192.277 121.233H192.745V117.233H192.277V121.233ZM190.745 119.233V122.61H194.745V119.233H190.745ZM192.745 120.61H192.511V124.61H192.745V120.61ZM190.511 122.61V123.02H194.511V122.61H190.511ZM192.511 121.02H192.277V125.02H192.511V121.02ZM194.277 123.02C194.277 121.486 193.65 120.178 192.525 119.049L189.692 121.874C190.201 122.383 190.277 122.716 190.277 123.02H194.277ZM192.701 119.252C191.473 117.635 189.685 117.233 188.189 117.233V121.233C189.029 121.233 189.343 121.444 189.516 121.672L192.701 119.252ZM188.189 117.233C186.989 117.233 185.806 117.52 184.817 118.362C183.874 119.165 183.345 120.274 183.001 121.42L186.832 122.569C187.071 121.772 187.301 121.5 187.409 121.408C187.472 121.355 187.634 121.233 188.189 121.233V117.233ZM183.048 121.282C182.684 122.236 182.565 123.445 182.565 124.656H186.565C186.565 123.612 186.681 122.981 186.785 122.707L183.048 121.282ZM182.565 124.656C182.565 126.721 182.906 128.593 183.868 130.029C184.906 131.577 186.474 132.34 188.264 132.483L188.582 128.496C187.8 128.434 187.439 128.173 187.191 127.802C186.867 127.319 186.565 126.377 186.565 124.656H182.565ZM188.851 132.443C189.796 132.236 191.457 131.83 192.628 130.46L189.589 127.86C189.359 128.129 188.918 128.333 187.994 128.536L188.851 132.443ZM192.701 130.371L193.869 128.833L190.685 126.413L189.516 127.95L192.701 130.371ZM194.277 127.623V126.394H190.277V127.623H194.277ZM192.277 128.394H192.745V124.394H192.277V128.394ZM190.745 126.394V130.285H194.745V126.394H190.745ZM192.745 128.285H192.511V132.285H192.745V128.285ZM190.511 130.285V130.49H194.511V130.285H190.511ZM192.511 128.49H192.277V132.49H192.511V128.49ZM194.277 130.49C194.277 130.227 194.278 129.456 193.815 128.776C193.528 128.355 193.095 128.012 192.544 127.851C192.041 127.704 191.583 127.75 191.264 127.821L192.126 131.727C192.04 131.746 191.772 131.793 191.422 131.69C191.024 131.574 190.708 131.32 190.508 131.027C190.338 130.777 190.294 130.562 190.284 130.506C190.273 130.442 190.277 130.425 190.277 130.49H194.277ZM190.894 127.941L189.725 128.452L191.326 132.117L192.495 131.607L190.894 127.941ZM189.941 128.372L187.603 129.088L188.774 132.912L191.111 132.197L189.941 128.372ZM188.189 129C187.166 129 186.306 128.68 185.554 127.886L182.649 130.636C184.225 132.3 186.17 133 188.189 133V129ZM185.488 127.819C184.742 127.101 184.347 126.099 184.347 125.065H180.347C180.347 127.099 181.124 129.172 182.715 130.702L185.488 127.819ZM184.292 125.533L184.76 123.587L180.871 122.651L180.402 124.597L184.292 125.533ZM184.802 123.349C184.852 122.914 185.01 122.566 185.554 122.145L183.11 118.979C181.793 119.996 181.014 121.285 180.828 122.889L184.802 123.349ZM215.391 119.029V119.234H219.391V119.029H215.391ZM217.391 117.234H217.277V121.234H217.391V117.234ZM215.277 119.234V119.54H219.277V119.234H215.277ZM217.277 117.54H215.642V121.54H217.277V117.54ZM213.642 119.54V130.183H217.642V119.54H213.642ZM215.642 132.183H217.393V128.183H215.642V132.183ZM215.393 130.183V130.491H219.393V130.183H215.393ZM217.393 128.491H215.642V132.491H217.393V128.491ZM215.642 132.491H217.277V128.491H215.642V132.491ZM215.277 130.491V130.796H219.277V130.491H215.277ZM217.277 128.796H212.018V132.796H217.277V128.796ZM214.018 130.796V130.491H210.018V130.796H214.018ZM212.018 132.491H213.773V128.491H212.018V132.491ZM213.773 128.491H212.138V132.491H213.773V128.491ZM214.138 130.491V130.183H210.138V130.491H214.138ZM212.138 132.183H213.773V128.183H212.138V132.183ZM215.773 130.183V125.068H211.773V130.183H215.773ZM213.773 123.068H207.114V127.068H213.773V123.068ZM205.114 125.068V130.183H209.114V125.068H205.114ZM207.114 132.183H208.866V128.183H207.114V132.183ZM206.866 130.183V130.491H210.866V130.183H206.866ZM206.866 130.491V130.796H210.866V130.491H206.866ZM208.866 128.796H203.376V132.796H208.866V128.796ZM205.376 130.796V130.491H201.376V130.796H205.376ZM203.376 132.491H205.127V128.491H203.376V132.491ZM205.127 128.491H203.61V132.491H205.127V128.491ZM205.61 130.491V130.183H201.61V130.491H205.61ZM203.61 132.183H205.127V128.183H203.61V132.183ZM207.127 130.183V119.54H203.127V130.183H207.127ZM205.127 117.54H203.376V121.54H205.127V117.54ZM205.376 119.54V119.234H201.376V119.54H205.376ZM203.376 121.234H203.61V117.234H203.376V121.234ZM205.61 119.234V119.029H201.61V119.234H205.61ZM203.61 121.029H208.866V117.029H203.61V121.029ZM206.866 119.029V119.54H210.866V119.029H206.866ZM208.866 117.54H207.114V121.54H208.866V117.54ZM205.114 119.54V124.554H209.114V119.54H205.114ZM207.114 126.554H213.773V122.554H207.114V126.554ZM215.773 124.554V119.54H211.773V124.554H215.773ZM213.773 117.54H212.018V121.54H213.773V117.54ZM214.018 119.54V119.234H210.018V119.54H214.018ZM212.018 121.234H212.136V117.234H212.018V121.234ZM214.136 119.234V119.029H210.136V119.234H214.136ZM212.136 121.029H217.391V117.029H212.136V121.029ZM154.895 108.644H156.65V104.644H154.895V108.644ZM158.65 106.644V0H154.65V106.644H158.65ZM156.65 -2H154.895V2H156.65V-2ZM152.895 0V106.644H156.895V0H152.895ZM105.555 9.85789L82.1924 86.7203L86.0196 87.8836L109.383 11.0212L105.555 9.85789ZM82.2018 86.6905C81.6883 88.2895 81.2223 89.5276 80.793 90.4394C80.3424 91.3964 80.0172 91.8059 79.8681 91.9365L82.504 94.9451C83.2896 94.2569 83.8989 93.2331 84.4119 92.1433C84.9463 91.0085 85.4729 89.5866 86.0102 87.9134L82.2018 86.6905ZM80.1232 91.7466C79.7012 92.0113 78.6769 92.3757 76.9887 92.4676L77.2062 96.4617C79.2563 96.3501 81.0341 95.8972 82.249 95.135L80.1232 91.7466ZM77.0975 92.4647H73.5932V96.4647H77.0975V92.4647ZM71.5932 94.4647V96.4107H75.5932V94.4647H71.5932ZM73.5932 98.4107H96.1377V94.4107H73.5932V98.4107ZM98.1377 96.4107V94.4647H94.1377V96.4107H98.1377ZM96.1377 92.4647H90.5319V96.4647H96.1377V92.4647ZM90.5911 92.4656C89.0216 92.4191 88.2302 92.1566 87.8823 91.935C87.7394 91.844 87.6999 91.7785 87.6849 91.75C87.6669 91.7158 87.6249 91.6185 87.6249 91.396H83.6249C83.6249 92.9986 84.3103 94.4024 85.7335 95.3089C86.9921 96.1104 88.6542 96.41 90.4728 96.4638L90.5911 92.4656ZM87.6249 91.396C87.6249 90.2237 88.1042 87.9391 89.2531 84.8178L85.4993 83.4361C84.3109 86.6648 83.6249 89.4935 83.6249 91.396H87.6249ZM89.2984 84.6793L93.6211 69.6352L89.7767 68.5306L85.454 83.5746L89.2984 84.6793ZM91.6989 71.0829H115.062V67.0829H91.6989V71.0829ZM113.153 69.6802L121.096 95.062L124.914 93.8674L116.971 68.4856L113.153 69.6802ZM123.005 92.4647H112.258V96.4647H123.005V92.4647ZM110.258 94.4647V96.4107H114.258V94.4647H110.258ZM112.258 98.4107H144.265V94.4107H112.258V98.4107ZM146.265 96.4107V94.4647H142.265V96.4107H146.265ZM144.265 92.4647H135.037V96.4647H144.265V92.4647ZM136.945 93.8652L110.546 9.84006L106.73 11.039L133.129 95.0642L136.945 93.8652ZM108.638 8.43953H107.469V12.4395H108.638V8.43953ZM101.468 31.5975L112.565 67.8274L116.39 66.656L105.293 30.426L101.468 31.5975ZM114.478 65.2417H92.4011V69.2417H114.478V65.2417ZM94.3219 67.799L104.835 31.5691L100.993 30.4544L90.4804 66.6844L94.3219 67.799ZM102.914 33.0117H103.38V29.0117H102.914V33.0117ZM115.984 119.029V119.54H119.984V119.029H115.984ZM117.984 117.54H116.348V121.54H117.984V117.54ZM114.348 119.54V130.183H118.348V119.54H114.348ZM116.348 132.183H117.984V128.183H116.348V132.183ZM115.984 130.183V130.491H119.984V130.183H115.984ZM115.984 130.491V130.796H119.984V130.491H115.984ZM117.984 128.796H112.726V132.796H117.984V128.796ZM114.726 130.796V130.491H110.726V130.796H114.726ZM114.726 130.491V130.183H110.726V130.491H114.726ZM112.726 132.183H114.243V128.183H112.726V132.183ZM116.243 130.183V119.54H112.243V130.183H116.243ZM114.243 117.54H112.726V121.54H114.243V117.54ZM114.726 119.54V119.029H110.726V119.54H114.726ZM112.726 121.029H117.984V117.029H112.726V121.029ZM92.0331 120.311L99.0417 128.702L102.112 126.137L95.103 117.747L92.0331 120.311ZM102.577 127.419V120.462H98.5766V127.419H102.577ZM102.577 120.462C102.577 119.749 102.329 119 101.767 118.419C101.193 117.825 100.422 117.54 99.642 117.54V121.54C99.4463 121.54 99.1423 121.459 98.8896 121.197C98.6494 120.948 98.5766 120.661 98.5766 120.462H102.577ZM99.642 117.54H98.8236V121.54H99.642V117.54ZM100.824 119.54V119.029H96.8236V119.54H100.824ZM98.8236 121.029H102.912V117.029H98.8236V121.029ZM100.912 119.029V119.234H104.912V119.029H100.912ZM102.912 117.234H102.796V121.234H102.912V117.234ZM100.796 119.234V119.54H104.796V119.234H100.796ZM102.796 117.54H101.978V121.54H102.796V117.54ZM101.978 117.54C101.459 117.54 100.913 117.63 100.404 117.898C99.8684 118.18 99.5236 118.58 99.3092 118.953L102.777 120.947C102.68 121.114 102.512 121.309 102.268 121.438C102.051 121.551 101.914 121.54 101.978 121.54V117.54ZM99.043 119.95V130.798H103.043V119.95H99.043ZM101.043 128.798H100.809V132.798H101.043V128.798ZM102.342 129.514L93.3468 118.771L90.2799 121.339L99.2755 132.082L102.342 129.514ZM89.8133 120.055V129.264H93.8133V120.055H89.8133ZM89.8133 129.264C89.8133 131.254 91.5909 132.183 92.9803 132.183V128.183C93.0094 128.183 93.1845 128.192 93.3937 128.362C93.6196 128.545 93.8133 128.869 93.8133 129.264H89.8133ZM92.9803 132.183H93.7987V128.183H92.9803V132.183ZM91.7987 130.183V130.491H95.7987V130.183H91.7987ZM91.7987 130.491V130.796H95.7987V130.491H91.7987ZM93.7987 128.796H89.7101V132.796H93.7987V128.796ZM91.7101 130.796V130.491H87.7101V130.796H91.7101ZM91.7101 130.491V130.183H87.7101V130.491H91.7101ZM89.7101 132.183H90.5285V128.183H89.7101V132.183ZM90.5285 132.183C91.0619 132.183 91.6106 132.088 92.1302 131.786C92.3661 131.65 92.5378 131.503 92.6405 131.41C92.6869 131.369 92.7335 131.324 92.7505 131.308C92.7622 131.297 92.7692 131.291 92.7746 131.286C92.7797 131.281 92.7815 131.279 92.781 131.28L90.1451 128.271C90.0873 128.322 90.038 128.368 90.0088 128.396C89.9724 128.43 89.967 128.435 89.9604 128.441C89.9572 128.444 90.0195 128.386 90.124 128.326C90.2368 128.26 90.3486 128.22 90.4417 128.198C90.5244 128.179 90.5624 128.183 90.5285 128.183V132.183ZM93.4631 129.776V119.54H89.4631V129.776H93.4631ZM91.4631 117.54H89.7101V121.54H91.4631V117.54ZM91.7101 119.54V119.029H87.7101V119.54H91.7101ZM89.7101 121.029H93.5681V117.029H89.7101V121.029ZM136.79 132.491H138.541V128.491H136.79V132.491ZM138.541 128.491H137.022V132.491H138.541V128.491ZM139.022 130.491V130.183H135.022V130.491H139.022ZM137.022 132.183H138.541V128.183H137.022V132.183ZM140.541 130.183V119.54H136.541V130.183H140.541ZM138.541 117.54H136.79V121.54H138.541V117.54ZM138.79 119.54V119.234H134.79V119.54H138.79ZM136.79 121.234H137.022V117.234H136.79V121.234ZM139.022 119.234V119.029H135.022V119.234H139.022ZM137.022 121.029H146.718V117.029H137.022V121.029ZM144.746 119.362L145.213 122.124L149.157 121.458L148.69 118.696L144.746 119.362ZM147.185 119.791H146.951V123.791H147.185V119.791ZM144.951 121.791V121.996H148.951V121.791H144.951ZM146.951 119.996H146.6V123.996H146.951V119.996ZM148.6 121.996C148.6 120.661 148.059 119.423 146.931 118.586C145.888 117.813 144.558 117.54 143.212 117.54V121.54C144.087 121.54 144.451 121.727 144.548 121.799C144.569 121.814 144.576 121.824 144.577 121.825C144.578 121.825 144.578 121.825 144.578 121.826C144.579 121.827 144.584 121.837 144.589 121.862C144.594 121.888 144.6 121.931 144.6 121.996H148.6ZM143.212 117.54H140.292V121.54H143.212V117.54ZM138.292 119.54V124.554H142.292V119.54H138.292ZM140.292 126.554H141.927V122.554H140.292V126.554ZM141.927 126.554C143.589 126.554 144.832 125.751 145.534 124.522L142.06 122.539C142.043 122.568 142.035 122.575 142.039 122.571C142.044 122.566 142.056 122.555 142.072 122.546C142.088 122.536 142.093 122.537 142.078 122.541C142.062 122.545 142.014 122.554 141.927 122.554V126.554ZM145.797 123.53V122.506H141.797V123.53H145.797ZM143.797 124.506H144.265V120.506H143.797V124.506ZM142.265 122.506V127.114H146.265V122.506H142.265ZM144.265 125.114H143.797V129.114H144.265V125.114ZM145.797 127.114C145.797 126.598 145.767 126.066 145.659 125.595C145.605 125.358 145.513 125.05 145.338 124.742C145.162 124.433 144.833 124.006 144.264 123.751L142.629 127.402C142.176 127.199 141.95 126.876 141.861 126.72C141.774 126.567 141.755 126.463 141.759 126.483C141.768 126.523 141.797 126.708 141.797 127.114H145.797ZM145.183 124.585C144.703 123.744 143.927 123.387 143.338 123.233C142.785 123.088 142.19 123.066 141.693 123.066V127.066C141.895 127.066 142.047 127.072 142.163 127.081C142.281 127.091 142.327 127.103 142.327 127.103C142.327 127.103 142.235 127.08 142.108 126.996C141.968 126.904 141.82 126.761 141.709 126.568L145.183 124.585ZM141.693 123.066H140.292V127.066H141.693V123.066ZM138.292 125.066V130.181H142.292V125.066H138.292ZM140.292 132.181H143.096V128.181H140.292V132.181ZM143.343 132.166L146.615 131.759L146.121 127.789L142.849 128.196L143.343 132.166ZM147.69 131.275C148.264 130.769 148.661 130.231 149.004 129.476L145.365 127.817C145.24 128.09 145.172 128.162 145.046 128.273L147.69 131.275ZM149.176 128.835L149.292 127.606L145.31 127.23L145.194 128.459L149.176 128.835ZM149.301 127.418V127.113H145.301V127.418H149.301ZM147.301 129.113H147.769V125.113H147.301V129.113ZM145.769 127.113V130.795H149.769V127.113H145.769ZM147.769 128.795H136.788V132.795H147.769V128.795ZM138.788 130.795V130.491H134.788V130.795H138.788ZM136.788 132.491H136.79V128.491H136.788V132.491ZM45.4836 119.848L49.3382 128.443L52.988 126.806L49.1334 118.211L45.4836 119.848ZM52.9971 128.422L56.7355 119.827L53.0674 118.231L49.329 126.827L52.9971 128.422ZM54.9014 121.029H58.4057V117.029H54.9014V121.029ZM56.4057 119.029V119.54H60.4057V119.029H56.4057ZM58.4057 117.54H56.7706V121.54H58.4057V117.54ZM54.7706 119.54V130.183H58.7706V119.54H54.7706ZM56.7706 132.183H58.4057V128.183H56.7706V132.183ZM56.4057 130.183V130.491H60.4057V130.183H56.4057ZM56.4057 130.491V130.796H60.4057V130.491H56.4057ZM58.4057 128.796H53.1484V132.796H58.4057V128.796ZM55.1484 130.796V130.491H51.1484V130.796H55.1484ZM55.1484 130.491V130.183H51.1484V130.491H55.1484ZM53.1484 132.183H54.9014V128.183H53.1484V132.183ZM56.9014 130.183V120.053H52.9014V130.183H56.9014ZM54.9014 118.053H54.6673V122.053H54.9014V118.053ZM52.8268 119.27L48.388 129.708L52.069 131.274L56.5078 120.836L52.8268 119.27ZM50.2285 128.491H49.9944V132.491H50.2285V128.491ZM51.8202 129.675L47.3813 119.747L43.7297 121.38L48.1686 131.307L51.8202 129.675ZM43.5555 120.564V128.753H47.5555V120.564H43.5555ZM43.5683 128.979L43.6845 130.003L47.659 129.552L47.5428 128.528L43.5683 128.979ZM44.9491 131.642L45.9999 132.049L47.445 128.319L46.3943 127.912L44.9491 131.642ZM46.7225 132.184H47.423V128.184H46.7225V132.184ZM45.423 130.184V130.493H49.423V130.184H45.423ZM47.423 128.493H46.1381V132.493H47.423V128.493ZM46.1381 132.493H47.3051V128.493H46.1381V132.493ZM45.3051 130.493V130.798H49.3051V130.493H45.3051ZM47.3051 128.798H43.5667V132.798H47.3051V128.798ZM45.5667 130.798V130.493H41.5667V130.798H45.5667ZM45.5667 130.493V130.184H41.5667V130.493H45.5667ZM43.5667 132.184H44.1511V128.184H43.5667V132.184ZM44.1511 132.184C45.3512 132.184 46.1178 131.43 46.2874 131.281L43.6515 128.273C43.5892 128.327 43.5662 128.347 43.5504 128.359C43.5382 128.369 43.5581 128.352 43.602 128.327C43.6487 128.3 43.7247 128.262 43.8264 128.232C43.9309 128.201 44.0415 128.184 44.1511 128.184V132.184ZM44.9695 131.777H45.0856V127.777H44.9695V131.777ZM47.0856 129.777V119.541H43.0856V129.777H47.0856ZM45.0856 117.541H43.5667V121.541H45.0856V117.541ZM45.5667 119.541V119.031H41.5667V119.541H45.5667ZM43.5667 121.031H47.3085V117.031H43.5667V121.031ZM49.3085 119.031V119.029H45.3085V119.031H49.3085ZM20.1943 119.029V119.54H24.1943V119.029H20.1943ZM22.1943 121.54H23.9473V117.54H22.1943V121.54ZM21.9473 119.54V130.183H25.9473V119.54H21.9473ZM23.9473 128.183H22.1943V132.183H23.9473V128.183ZM20.1943 130.183V130.491H24.1943V130.183H20.1943ZM20.1943 130.491V130.796H24.1943V130.491H20.1943ZM22.1943 132.796H27.5677V128.796H22.1943V132.796ZM29.5677 130.796V130.491H25.5677V130.796H29.5677ZM29.5677 130.491V130.183H25.5677V130.491H29.5677ZM27.5677 128.183H25.8147V132.183H27.5677V128.183ZM27.8147 130.183V125.068H23.8147V130.183H27.8147ZM25.8147 127.068H26.9834V123.068H25.8147V127.068ZM26.9834 127.068C27.5888 127.068 27.6735 127.188 27.5935 127.128C27.5754 127.114 27.5575 127.097 27.5425 127.08C27.5279 127.062 27.522 127.051 27.5226 127.052C27.5257 127.058 27.5574 127.121 27.5879 127.282L31.5183 126.539C31.3455 125.625 30.9351 124.635 29.9951 123.929C29.0971 123.255 28.0131 123.068 26.9834 123.068V127.068ZM27.6027 127.353L27.835 128.377L31.7359 127.492L31.5035 126.468L27.6027 127.353ZM27.8622 128.483L28.4465 130.531L32.293 129.433L31.7087 127.386L27.8622 128.483ZM28.4197 130.426C28.692 131.623 29.6667 132.193 30.2275 132.427C30.8662 132.694 31.5796 132.798 32.239 132.798V128.798C31.9637 128.798 31.8006 128.749 31.7675 128.736C31.7539 128.73 31.8326 128.759 31.9435 128.862C32.062 128.973 32.2417 129.195 32.3199 129.538L28.4197 130.426ZM32.3613 132.794L33.9964 132.694L33.7517 128.701L32.1166 128.802L32.3613 132.794ZM35.8741 130.698V130.288H31.8741V130.698H35.8741ZM33.3879 128.348L32.5695 128.553L33.5418 132.433L34.3602 132.228L33.3879 128.348ZM33.0556 128.493H32.7054V132.493H33.0556V128.493ZM33.0511 132.463L34.2197 132.257L33.5284 128.318L32.3597 128.523L33.0511 132.463ZM35.8741 130.288V130.184H31.8741V130.288H35.8741ZM33.6236 128.2L32.8051 128.303L33.3061 132.272L34.1245 132.168L33.6236 128.2ZM33.0556 128.288C33.0944 128.288 33.4658 128.302 33.8072 128.655C34.1368 128.996 34.1211 129.327 34.1211 129.264H30.1211C30.1211 129.919 30.2804 130.762 30.9312 131.435C31.5938 132.121 32.4326 132.288 33.0556 132.288V128.288ZM34.1081 129.037L33.874 126.989L29.8999 127.443L30.134 129.491L34.1081 129.037ZM33.8367 126.77C33.5433 125.487 33.0119 124.336 31.8714 123.533L29.5687 126.803C29.6117 126.834 29.6478 126.867 29.6967 126.952C29.7578 127.059 29.847 127.267 29.9373 127.662L33.8367 126.77ZM31.4485 123.305C30.8924 123.088 30.3241 122.897 29.7461 122.733L28.6561 126.582C29.1109 126.711 29.5566 126.861 29.9915 127.031L31.4485 123.305ZM29.548 126.627C31.6118 126.264 33.5694 125.248 34.0707 123.056L30.1714 122.164C30.1673 122.182 30.1644 122.185 30.1624 122.188C30.1591 122.193 30.1363 122.225 30.0647 122.277C29.9071 122.39 29.551 122.565 28.8543 122.688L29.548 126.627ZM34.0862 122.982L34.2023 122.368L30.2721 121.624L30.1559 122.238L34.0862 122.982ZM34.2372 121.996C34.2372 120.418 33.5735 119.025 32.2267 118.122C31.0085 117.306 29.4363 117.029 27.7984 117.029V121.029C29.0821 121.029 29.7293 121.264 30.0001 121.446C30.1127 121.521 30.1518 121.58 30.172 121.62C30.1951 121.665 30.2372 121.774 30.2372 121.996H34.2372ZM27.7984 117.029H22.1943V121.029H27.7984V117.029ZM28.214 122.267C28.1987 122.32 28.1878 122.326 28.1961 122.316C28.2028 122.308 28.1909 122.328 28.1239 122.362C27.9613 122.444 27.5847 122.554 26.8672 122.554V126.554C27.9028 126.554 28.9862 126.409 29.9329 125.929C30.9559 125.411 31.7245 124.543 32.0608 123.363L28.214 122.267ZM26.8672 122.554H25.8165V126.554H26.8672V122.554ZM27.8165 124.554V119.54H23.8165V124.554H27.8165ZM25.8165 121.54H26.9852V117.54H25.8165V121.54ZM26.9852 121.54C27.4086 121.54 27.6936 121.584 27.8744 121.635C27.9624 121.66 28.0192 121.684 28.0529 121.701C28.0696 121.71 28.0808 121.716 28.0875 121.721C28.0942 121.725 28.0971 121.728 28.0974 121.728C28.0976 121.728 28.0962 121.727 28.0938 121.724C28.0915 121.722 28.0893 121.719 28.0875 121.716C28.0834 121.711 28.0862 121.713 28.0925 121.729C28.1065 121.765 28.1392 121.876 28.1392 122.101H32.1392C32.1392 120.897 31.7823 119.613 30.6915 118.683C29.6653 117.809 28.3202 117.54 26.9852 117.54V121.54ZM28.1392 122.101V122.815H32.1392V122.101H28.1392ZM30.1392 120.815H30.1374V124.815H30.1392V120.815ZM72.0652 118.034L68.2089 128.575L71.9654 129.949L75.8217 119.408L72.0652 118.034ZM68.6068 127.917C68.4795 128.057 68.3893 128.158 68.3019 128.251C68.216 128.342 68.1684 128.387 68.1447 128.408C68.1174 128.432 68.1622 128.387 68.2688 128.332C68.3841 128.272 68.6112 128.181 68.9202 128.181V132.181C69.8594 132.181 70.5107 131.652 70.7755 131.421C71.0755 131.159 71.3773 130.816 71.5676 130.607L68.6068 127.917ZM68.9202 128.181H68.1036V132.181H68.9202V128.181ZM66.1036 130.181V130.49H70.1036V130.181H66.1036ZM66.1036 130.49V130.795H70.1036V130.49H66.1036ZM68.1036 132.795H71.8419V128.795H68.1036V132.795ZM73.8419 130.795V130.49H69.8419V130.795H73.8419ZM71.8419 128.49H70.6732V132.49H71.8419V128.49ZM70.6732 132.49H71.9581V128.49H70.6732V132.49ZM73.9581 130.49V130.181H69.9581V130.49H73.9581ZM71.9581 128.181H71.0235V132.181H71.9581V128.181ZM71.0235 128.181C70.9232 128.181 71.1105 128.158 71.397 128.324C71.7339 128.519 72.2051 129.006 72.2051 129.774H68.2051C68.2051 130.748 68.7933 131.438 69.3933 131.786C69.943 132.104 70.5395 132.181 71.0235 132.181V128.181ZM72.0654 130.508L73.1161 127.847L69.3956 126.378L68.3448 129.04L72.0654 130.508ZM71.2558 129.113H75.1104V125.113H71.2558V129.113ZM73.2413 127.824L74.41 130.893L78.1481 129.469L76.9794 126.401L73.2413 127.824ZM76.279 128.181H74.7619V132.181H76.279V128.181ZM72.7619 130.181V130.49H76.7619V130.181H72.7619ZM72.7619 130.49V130.795H76.7619V130.49H72.7619ZM74.7619 132.795H80.1353V128.795H74.7619V132.795ZM82.1353 130.795V130.49H78.1353V130.795H82.1353ZM82.1353 130.49V130.181H78.1353V130.49H82.1353ZM80.1353 128.181H78.6164V132.181H80.1353V128.181ZM80.4814 129.459L76.0425 117.997L72.3125 119.442L76.7514 130.903L80.4814 129.459ZM74.1775 116.719H73.9434V120.719H74.1775V116.719ZM71.9434 118.719V118.721H75.9434V118.719H71.9434ZM71.2576 122.503L73.0106 127.107L76.7489 125.684L74.9959 121.079L71.2576 122.503ZM74.8798 124.396H71.3755V128.396H74.8798V124.396ZM73.2448 127.106L74.9961 122.502L71.2574 121.08L69.5061 125.685L73.2448 127.106ZM4.09129 117.998L0.00441963 128.539L3.73393 129.985L7.82081 119.444L4.09129 117.998ZM-0.0815187 128.821C0.00381995 128.444 0.329125 128.181 0.700508 128.181V132.181C2.24056 132.181 3.50219 131.108 3.81987 129.703L-0.0815187 128.821ZM0.700508 128.181H0.116174V132.181H0.700508V128.181ZM-1.88383 130.181V130.49H2.11617V130.181H-1.88383ZM0.116174 132.49H0.934587V128.49H0.116174V132.49ZM0.934587 128.49H0V132.49H0.934587V128.49ZM-2 130.49V130.795H2V130.49H-2ZM0 132.795H3.85453V128.795H0V132.795ZM5.85453 130.795V130.49H1.85453V130.795H5.85453ZM5.85453 130.49V130.181H1.85453V130.49H5.85453ZM3.85453 128.181H2.91994V132.181H3.85453V128.181ZM2.91994 128.181C2.81965 128.181 3.0069 128.158 3.29345 128.324C3.63037 128.519 4.10152 129.006 4.10152 129.774H0.101523C0.101523 130.748 0.689719 131.438 1.28976 131.786C1.83944 132.104 2.43589 132.181 2.91994 132.181V128.181ZM3.98856 130.437L4.92315 127.775L1.14907 126.45L0.214483 129.111L3.98856 130.437ZM3.03611 129.113H7.00681V125.113H3.03611V129.113ZM5.16199 127.885L6.44683 130.954L10.1365 129.409L8.85163 126.34L5.16199 127.885ZM8.29165 128.181H6.54038V132.181H8.29165V128.181ZM4.54038 130.181V130.49H8.54038V130.181H4.54038ZM4.54038 130.49V130.795H8.54038V130.49H4.54038ZM6.54038 132.795H12.0317V128.795H6.54038V132.795ZM14.0317 130.795V130.49H10.0317V130.795H14.0317ZM14.0317 130.49V130.181H10.0317V130.49H14.0317ZM12.0317 128.181H10.5128V132.181H12.0317V128.181ZM12.3713 129.442L7.81453 117.982L4.09757 119.46L8.65434 130.92L12.3713 129.442ZM7.00854 124.396H3.27019V128.396H7.00854V124.396ZM5.13931 127.107L6.89232 122.503L3.15407 121.079L1.40107 125.684L5.13931 127.107ZM3.18664 122.583L5.17199 127.187L8.8451 125.604L6.85975 120.999L3.18664 122.583Z" fill="black" mask="url(#path-1-inside-1_9_121)"/>
</svg>
