<svg width="216" height="131" viewBox="0 0 216 131" fill="none" xmlns="http://www.w3.org/2000/svg">
<mask id="path-1-inside-1_7_49" fill="white">
<path d="M43.1201 18.34V24.2593C39.4854 26.1515 30.8001 27.2771 24.3337 27.2771C17.8756 27.2771 0 24.9094 0 13.7841C0 2.65882 17.0146 0.262 23.8783 0.262C30.7504 0.262 38.0696 0.999481 42.3087 2.65881V7.86485C42.3087 8.515 40.7935 8.45678 40.7935 7.86485C40.6942 6.97696 36.6537 1.65448 26.5526 1.77093C15.6484 1.90193 8.27959 6.92359 8.27959 13.5464C8.27959 20.1691 15.4414 25.8555 26.2546 25.676C29.7651 25.6178 33.4247 24.9676 35.1965 24.104L35.2379 18.34C35.2379 16.6855 33.5241 16.0936 31.8102 16.0936C30.6924 16.0936 30.6924 15.1475 31.8102 15.1475H46.5479C47.6573 15.1475 47.6573 16.1518 46.5479 16.0936C44.8423 16.0936 43.1201 16.6855 43.1201 18.34ZM142.483 7.8697C142.483 8.51985 141.374 8.46163 141.374 7.8697C141.266 6.98181 137.234 1.47981 127.133 1.60111C116.229 1.72726 108.852 6.92844 108.852 13.5512C108.852 20.174 115.923 26.035 126.727 25.8604C137.532 25.6809 142.682 19.4123 143.088 18.5826C143.494 17.7529 144.197 17.8742 144.197 18.5244V23.3762C139.759 25.2684 131.372 27.282 124.914 27.282C118.456 27.282 100.58 24.9143 100.58 13.789C100.58 2.65882 117.545 0 124.409 0C131.281 0 138.244 1.00433 142.492 2.65881V7.8697H142.483ZM214.789 0.650148C216.404 0.650148 216.404 1.53804 214.789 1.53804C213.067 1.53804 211.353 2.12996 211.353 3.78444V23.4878C211.353 25.1423 213.067 25.7342 214.789 25.7342C216.404 25.7342 216.404 26.9181 214.789 26.9181H199.944C198.329 26.9181 198.329 25.7342 199.944 25.7342C201.666 25.7342 203.38 25.1423 203.38 23.4878V3.78444C203.38 2.12511 201.666 1.53804 199.944 1.53804C198.329 1.53804 198.329 0.650148 199.944 0.650148H214.789ZM96.7387 0.650148C98.3532 0.650148 98.3532 1.53804 96.7387 1.53804C95.0248 1.53804 93.311 2.12996 93.311 3.78444L93.1123 16.7146C93.1123 22.9056 84.5429 27.4566 73.9699 27.4566C63.3968 27.4566 55.1421 22.9056 55.1421 16.7146V3.78444C55.1421 2.12511 53.4199 1.53804 51.706 1.53804C50.0915 1.53804 50.0915 0.650148 51.706 0.650148H66.6507C68.2652 0.650148 68.2652 1.53804 66.6507 1.53804C64.9285 1.53804 63.2147 2.12996 63.2147 3.78444L63.1981 18.2236C63.1981 22.5902 69.2919 26.1321 76.7435 26.1321C84.1951 26.1321 90.2393 21.7023 90.2393 17.3405L89.8749 3.78444C89.8749 2.12511 88.1611 1.53804 86.4389 1.53804C84.8327 1.53804 84.8327 0.650148 86.4389 0.650148H96.7387ZM110.557 58.6201C119.543 56.0196 129.432 54.6713 139.453 54.6804C149.264 54.6815 158.948 55.9817 167.781 58.4838C176.615 60.986 184.369 64.6255 190.465 69.1304C196.561 73.6353 200.841 78.8891 202.985 84.4994C205.13 90.1097 205.083 95.9315 202.849 101.53C200.615 107.128 196.251 112.358 190.083 116.829C183.915 121.3 176.103 124.897 167.23 127.351C158.358 129.804 148.653 131.051 138.843 130.998C129.032 130.946 119.368 129.594 110.574 127.046C101.781 129.59 92.1205 130.938 82.314 130.989C72.5075 131.039 62.8083 129.791 53.9404 127.337C45.0725 124.883 37.2651 121.287 31.1011 116.817C24.937 112.348 20.5756 107.12 18.3425 101.524C16.1093 95.9279 16.0621 90.1087 18.2043 84.5007C20.3465 78.8926 24.6229 73.6406 30.7141 69.1367C36.8053 64.6328 44.554 60.9933 53.3816 58.4901C62.2093 55.9869 71.8878 54.6846 81.6947 54.6804C92.0773 54.6804 101.847 56.0971 110.557 58.6201ZM123.689 63.632C133.776 68.572 141.037 75.2047 144.495 82.6367H131C127.21 76.3614 120.033 70.9808 110.557 67.3097C101.099 70.9833 93.9363 76.3593 90.1482 82.627L76.6607 82.6319C80.1621 75.1908 87.4452 68.5504 97.5418 63.5932C92.4073 62.6624 87.061 62.1946 81.6864 62.2056C74.1582 62.2099 66.7205 63.1672 59.8821 65.0121C53.0438 66.857 46.9664 69.5458 42.0658 72.8946C37.1651 76.2435 33.557 80.1732 31.4883 84.4149C29.4196 88.6566 28.9391 93.1102 30.0798 97.4708C31.2205 101.831 33.9554 105.996 38.0973 109.68C42.2393 113.364 47.6905 116.48 54.0779 118.815C60.4653 121.149 67.6381 122.648 75.1055 123.208C82.5728 123.768 90.1584 123.375 97.3431 122.058C90.7682 118.803 85.3656 114.814 81.4506 110.322C77.5356 105.83 75.1868 100.926 74.5411 95.8969H105.523V103.509L90.4545 103.505C94.3224 109.581 101.374 114.783 110.599 118.366C119.824 114.789 126.865 109.584 130.702 103.505L115.633 103.509V95.8969H146.615C145.931 100.928 143.544 105.829 139.592 110.313C135.64 114.797 130.202 118.775 123.598 122.014C131.427 123.475 139.734 123.832 147.844 123.059C155.954 122.285 163.638 120.402 170.273 117.561C176.908 114.721 182.306 111.004 186.031 106.713C189.755 102.421 191.7 97.6746 191.707 92.8597C191.715 88.0448 189.785 83.2967 186.074 79.0007C182.363 74.7048 176.976 70.9822 170.35 68.135C163.724 65.2877 156.046 63.3962 147.938 62.6138C139.831 61.8314 131.523 62.1803 123.689 63.632ZM191.863 7.8697C191.863 8.51985 190.753 8.46163 190.753 7.8697C190.654 6.98181 186.614 1.47981 176.513 1.60111C165.608 1.72726 158.231 6.92844 158.231 13.5512C158.231 20.174 165.302 26.035 176.107 25.8604C186.912 25.6857 192.062 19.4123 192.467 18.5826C192.873 17.7529 193.585 17.8742 193.585 18.5244V23.3762C189.139 25.2684 180.76 27.282 174.294 27.282C167.836 27.282 149.96 24.9143 149.96 13.789C149.96 2.65882 166.925 0 173.797 0C180.661 0 187.632 1.00433 191.871 2.65881V7.8697H191.863Z"/>
</mask>
<path d="M43.1201 18.34V24.2593C39.4854 26.1515 30.8001 27.2771 24.3337 27.2771C17.8756 27.2771 0 24.9094 0 13.7841C0 2.65882 17.0146 0.262 23.8783 0.262C30.7504 0.262 38.0696 0.999481 42.3087 2.65881V7.86485C42.3087 8.515 40.7935 8.45678 40.7935 7.86485C40.6942 6.97696 36.6537 1.65448 26.5526 1.77093C15.6484 1.90193 8.27959 6.92359 8.27959 13.5464C8.27959 20.1691 15.4414 25.8555 26.2546 25.676C29.7651 25.6178 33.4247 24.9676 35.1965 24.104L35.2379 18.34C35.2379 16.6855 33.5241 16.0936 31.8102 16.0936C30.6924 16.0936 30.6924 15.1475 31.8102 15.1475H46.5479C47.6573 15.1475 47.6573 16.1518 46.5479 16.0936C44.8423 16.0936 43.1201 16.6855 43.1201 18.34ZM142.483 7.8697C142.483 8.51985 141.374 8.46163 141.374 7.8697C141.266 6.98181 137.234 1.47981 127.133 1.60111C116.229 1.72726 108.852 6.92844 108.852 13.5512C108.852 20.174 115.923 26.035 126.727 25.8604C137.532 25.6809 142.682 19.4123 143.088 18.5826C143.494 17.7529 144.197 17.8742 144.197 18.5244V23.3762C139.759 25.2684 131.372 27.282 124.914 27.282C118.456 27.282 100.58 24.9143 100.58 13.789C100.58 2.65882 117.545 0 124.409 0C131.281 0 138.244 1.00433 142.492 2.65881V7.8697H142.483ZM214.789 0.650148C216.404 0.650148 216.404 1.53804 214.789 1.53804C213.067 1.53804 211.353 2.12996 211.353 3.78444V23.4878C211.353 25.1423 213.067 25.7342 214.789 25.7342C216.404 25.7342 216.404 26.9181 214.789 26.9181H199.944C198.329 26.9181 198.329 25.7342 199.944 25.7342C201.666 25.7342 203.38 25.1423 203.38 23.4878V3.78444C203.38 2.12511 201.666 1.53804 199.944 1.53804C198.329 1.53804 198.329 0.650148 199.944 0.650148H214.789ZM96.7387 0.650148C98.3532 0.650148 98.3532 1.53804 96.7387 1.53804C95.0248 1.53804 93.311 2.12996 93.311 3.78444L93.1123 16.7146C93.1123 22.9056 84.5429 27.4566 73.9699 27.4566C63.3968 27.4566 55.1421 22.9056 55.1421 16.7146V3.78444C55.1421 2.12511 53.4199 1.53804 51.706 1.53804C50.0915 1.53804 50.0915 0.650148 51.706 0.650148H66.6507C68.2652 0.650148 68.2652 1.53804 66.6507 1.53804C64.9285 1.53804 63.2147 2.12996 63.2147 3.78444L63.1981 18.2236C63.1981 22.5902 69.2919 26.1321 76.7435 26.1321C84.1951 26.1321 90.2393 21.7023 90.2393 17.3405L89.8749 3.78444C89.8749 2.12511 88.1611 1.53804 86.4389 1.53804C84.8327 1.53804 84.8327 0.650148 86.4389 0.650148H96.7387ZM110.557 58.6201C119.543 56.0196 129.432 54.6713 139.453 54.6804C149.264 54.6815 158.948 55.9817 167.781 58.4838C176.615 60.986 184.369 64.6255 190.465 69.1304C196.561 73.6353 200.841 78.8891 202.985 84.4994C205.13 90.1097 205.083 95.9315 202.849 101.53C200.615 107.128 196.251 112.358 190.083 116.829C183.915 121.3 176.103 124.897 167.23 127.351C158.358 129.804 148.653 131.051 138.843 130.998C129.032 130.946 119.368 129.594 110.574 127.046C101.781 129.59 92.1205 130.938 82.314 130.989C72.5075 131.039 62.8083 129.791 53.9404 127.337C45.0725 124.883 37.2651 121.287 31.1011 116.817C24.937 112.348 20.5756 107.12 18.3425 101.524C16.1093 95.9279 16.0621 90.1087 18.2043 84.5007C20.3465 78.8926 24.6229 73.6406 30.7141 69.1367C36.8053 64.6328 44.554 60.9933 53.3816 58.4901C62.2093 55.9869 71.8878 54.6846 81.6947 54.6804C92.0773 54.6804 101.847 56.0971 110.557 58.6201ZM123.689 63.632C133.776 68.572 141.037 75.2047 144.495 82.6367H131C127.21 76.3614 120.033 70.9808 110.557 67.3097C101.099 70.9833 93.9363 76.3593 90.1482 82.627L76.6607 82.6319C80.1621 75.1908 87.4452 68.5504 97.5418 63.5932C92.4073 62.6624 87.061 62.1946 81.6864 62.2056C74.1582 62.2099 66.7205 63.1672 59.8821 65.0121C53.0438 66.857 46.9664 69.5458 42.0658 72.8946C37.1651 76.2435 33.557 80.1732 31.4883 84.4149C29.4196 88.6566 28.9391 93.1102 30.0798 97.4708C31.2205 101.831 33.9554 105.996 38.0973 109.68C42.2393 113.364 47.6905 116.48 54.0779 118.815C60.4653 121.149 67.6381 122.648 75.1055 123.208C82.5728 123.768 90.1584 123.375 97.3431 122.058C90.7682 118.803 85.3656 114.814 81.4506 110.322C77.5356 105.83 75.1868 100.926 74.5411 95.8969H105.523V103.509L90.4545 103.505C94.3224 109.581 101.374 114.783 110.599 118.366C119.824 114.789 126.865 109.584 130.702 103.505L115.633 103.509V95.8969H146.615C145.931 100.928 143.544 105.829 139.592 110.313C135.64 114.797 130.202 118.775 123.598 122.014C131.427 123.475 139.734 123.832 147.844 123.059C155.954 122.285 163.638 120.402 170.273 117.561C176.908 114.721 182.306 111.004 186.031 106.713C189.755 102.421 191.7 97.6746 191.707 92.8597C191.715 88.0448 189.785 83.2967 186.074 79.0007C182.363 74.7048 176.976 70.9822 170.35 68.135C163.724 65.2877 156.046 63.3962 147.938 62.6138C139.831 61.8314 131.523 62.1803 123.689 63.632ZM191.863 7.8697C191.863 8.51985 190.753 8.46163 190.753 7.8697C190.654 6.98181 186.614 1.47981 176.513 1.60111C165.608 1.72726 158.231 6.92844 158.231 13.5512C158.231 20.174 165.302 26.035 176.107 25.8604C186.912 25.6857 192.062 19.4123 192.467 18.5826C192.873 17.7529 193.585 17.8742 193.585 18.5244V23.3762C189.139 25.2684 180.76 27.282 174.294 27.282C167.836 27.282 149.96 24.9143 149.96 13.789C149.96 2.65882 166.925 0 173.797 0C180.661 0 187.632 1.00433 191.871 2.65881V7.8697H191.863Z" stroke="black" stroke-width="4" mask="url(#path-1-inside-1_7_49)"/>
</svg>
