<svg width="210" height="131" viewBox="0 0 210 131" fill="none" xmlns="http://www.w3.org/2000/svg">
<mask id="path-1-inside-1_7_42" fill="white">
<path fill-rule="evenodd" clip-rule="evenodd" d="M204.944 118.728H207.713V130.796L190.79 121.662V130.347H187.944V118.155L204.944 127.331V118.728ZM125.401 118.728V126.107C125.401 127.411 124.688 128.472 123.264 129.288C121.763 130.185 119.707 130.592 117.098 130.592C114.647 130.592 112.592 130.185 111.087 129.288C109.587 128.472 108.873 127.411 108.873 126.107V118.728H111.722V125.618C111.722 128.023 113.461 129.247 117.098 129.247C120.813 129.247 122.632 128.023 122.632 125.618V118.728H125.401ZM134.099 118.728H147.619V120.073H142.243V130.348H139.555V120.073H134.099V118.728ZM129.196 118.728H132.043V130.348H129.196V118.728ZM104.288 118.728H107.372L97.5668 131L87.7627 118.728H90.8465L97.5682 127.331L104.288 118.728ZM182.725 124.557C182.725 125.862 181.855 126.963 180.038 127.901C178.377 128.798 176.242 129.247 173.789 129.247C171.338 129.247 169.203 128.798 167.386 127.901C165.567 126.963 164.698 125.862 164.698 124.557C164.698 123.253 165.488 122.152 167.227 121.255C168.967 120.318 171.182 119.869 173.789 119.869C176.399 119.869 178.533 120.318 180.194 121.255C181.856 122.152 182.725 123.252 182.725 124.557ZM182.094 120.276C179.723 119.094 176.954 118.482 173.79 118.482C170.549 118.482 167.783 119.094 165.409 120.276C163.117 121.458 161.93 122.886 161.93 124.557C161.93 126.269 163.118 127.696 165.409 128.878C167.703 130.02 170.47 130.592 173.79 130.592C177.034 130.592 179.879 130.02 182.094 128.878C184.387 127.696 185.573 126.269 185.573 124.557C185.574 122.886 184.389 121.458 182.094 120.276ZM161.299 118.728V120.073H156V130.348H153.154V120.073H147.778V118.728H161.299ZM30.5148 121.255C32.1756 122.152 32.9659 123.253 32.9659 124.557C32.9659 125.862 32.0954 126.963 30.3573 127.901C28.6178 128.798 26.4819 129.247 24.0308 129.247C21.5798 129.247 19.4452 128.798 17.627 127.901C15.9662 126.963 15.0184 125.862 15.0184 124.557C15.0184 123.253 15.8875 122.152 17.5482 121.255C19.2877 120.318 21.4237 119.869 24.0322 119.869C26.6407 119.869 28.8555 120.318 30.5148 121.255ZM32.3344 120.276C29.9622 119.094 27.1948 118.482 24.0322 118.482C20.7895 118.482 17.9447 119.094 15.73 120.276C13.3577 121.458 12.1723 122.886 12.1723 124.557C12.1723 126.269 13.3591 127.696 15.73 128.878C17.9447 130.02 20.7121 130.592 24.0322 130.592C27.3536 130.592 30.121 130.02 32.3344 128.878C34.7067 127.696 35.8134 126.269 35.8134 124.557C35.8134 122.886 34.7067 121.458 32.3344 120.276ZM40.9531 125.617C40.9531 128.023 42.7713 129.247 46.4091 129.247C49.9682 129.247 51.8652 128.023 51.8652 125.617V118.727H54.6326V126.106C54.6326 127.411 53.921 128.471 52.4178 129.287C50.916 130.184 48.8601 130.592 46.4091 130.592C43.8793 130.592 41.9022 130.184 40.4004 129.287C38.8184 128.471 38.1082 127.411 38.1082 126.106V118.727H40.9544V125.617H40.9531ZM5.05412 118.728V129.043H11.9333V130.347H2.28671V118.727L5.05412 118.728ZM72.8176 123.497C76.613 124.271 78.4326 125.413 78.4326 126.963C78.4326 128.023 77.721 128.878 76.2979 129.572C74.9536 130.265 73.2929 130.592 71.3158 130.592C69.4976 130.592 67.9156 130.307 66.5726 129.654C65.3071 129.043 64.5168 128.268 64.2791 127.331L67.1253 127.004C67.1253 127.657 67.5205 128.187 68.3909 128.635C69.2613 129.043 70.2091 129.247 71.4747 129.247C72.6615 129.247 73.6093 129.002 74.4797 128.553C75.1913 128.146 75.5864 127.615 75.5864 126.963C75.5864 126.066 74.3208 125.333 71.7123 124.761L70.1303 124.477C66.9678 123.702 65.3071 122.724 65.3071 121.5C65.3071 120.603 66.0186 119.828 67.2842 119.297C68.6285 118.728 70.1303 118.482 71.9499 118.482C74.5585 118.482 76.4568 119.094 77.721 120.276L75.5076 120.929C74.6372 120.236 73.4518 119.869 71.8698 119.869C70.9207 119.869 69.9715 119.991 69.2599 120.276C68.4696 120.602 68.0731 121.011 68.0731 121.499C68.0731 122.192 69.1011 122.723 71.3144 123.13L72.8176 123.497ZM58.4279 118.728H61.2755V130.348H58.4279V118.728ZM169.462 13.6841L114.926 80.0573L99.8807 63.0332L127.672 24.0282C129.761 21.0118 137.074 19.6106 149.403 19.6106L153.79 13.6841H89.0147L84.8351 19.6106C94.0295 19.6106 97.7909 21.0111 96.327 24.0282L82.5375 43.8539L55.374 13.6841C50.3593 10.452 52.866 8.83519 62.6877 8.83519V1.83244H0V8.83589C11.7024 8.83589 19.0147 10.4527 22.1501 13.6848L68.1207 64.1115L46.5979 93.7421C46.1783 97.7283 34.0603 99.6693 10.6568 99.6693L6.26945 105.595H185.134L210 78.3348H197.044C184.926 92.4495 170.926 99.6693 155.255 99.6693H73.134L85.2533 82.968L95.701 93.7421H119.105L185.133 13.6855C188.268 8.83659 196.418 6.25143 209.164 6.25143V0H155.253V6.25003C171.552 6.25003 176.15 8.83589 169.462 13.6841Z"/>
</mask>
<path fill-rule="evenodd" clip-rule="evenodd" d="M204.944 118.728H207.713V130.796L190.79 121.662V130.347H187.944V118.155L204.944 127.331V118.728ZM125.401 118.728V126.107C125.401 127.411 124.688 128.472 123.264 129.288C121.763 130.185 119.707 130.592 117.098 130.592C114.647 130.592 112.592 130.185 111.087 129.288C109.587 128.472 108.873 127.411 108.873 126.107V118.728H111.722V125.618C111.722 128.023 113.461 129.247 117.098 129.247C120.813 129.247 122.632 128.023 122.632 125.618V118.728H125.401ZM134.099 118.728H147.619V120.073H142.243V130.348H139.555V120.073H134.099V118.728ZM129.196 118.728H132.043V130.348H129.196V118.728ZM104.288 118.728H107.372L97.5668 131L87.7627 118.728H90.8465L97.5682 127.331L104.288 118.728ZM182.725 124.557C182.725 125.862 181.855 126.963 180.038 127.901C178.377 128.798 176.242 129.247 173.789 129.247C171.338 129.247 169.203 128.798 167.386 127.901C165.567 126.963 164.698 125.862 164.698 124.557C164.698 123.253 165.488 122.152 167.227 121.255C168.967 120.318 171.182 119.869 173.789 119.869C176.399 119.869 178.533 120.318 180.194 121.255C181.856 122.152 182.725 123.252 182.725 124.557ZM182.094 120.276C179.723 119.094 176.954 118.482 173.79 118.482C170.549 118.482 167.783 119.094 165.409 120.276C163.117 121.458 161.93 122.886 161.93 124.557C161.93 126.269 163.118 127.696 165.409 128.878C167.703 130.02 170.47 130.592 173.79 130.592C177.034 130.592 179.879 130.02 182.094 128.878C184.387 127.696 185.573 126.269 185.573 124.557C185.574 122.886 184.389 121.458 182.094 120.276ZM161.299 118.728V120.073H156V130.348H153.154V120.073H147.778V118.728H161.299ZM30.5148 121.255C32.1756 122.152 32.9659 123.253 32.9659 124.557C32.9659 125.862 32.0954 126.963 30.3573 127.901C28.6178 128.798 26.4819 129.247 24.0308 129.247C21.5798 129.247 19.4452 128.798 17.627 127.901C15.9662 126.963 15.0184 125.862 15.0184 124.557C15.0184 123.253 15.8875 122.152 17.5482 121.255C19.2877 120.318 21.4237 119.869 24.0322 119.869C26.6407 119.869 28.8555 120.318 30.5148 121.255ZM32.3344 120.276C29.9622 119.094 27.1948 118.482 24.0322 118.482C20.7895 118.482 17.9447 119.094 15.73 120.276C13.3577 121.458 12.1723 122.886 12.1723 124.557C12.1723 126.269 13.3591 127.696 15.73 128.878C17.9447 130.02 20.7121 130.592 24.0322 130.592C27.3536 130.592 30.121 130.02 32.3344 128.878C34.7067 127.696 35.8134 126.269 35.8134 124.557C35.8134 122.886 34.7067 121.458 32.3344 120.276ZM40.9531 125.617C40.9531 128.023 42.7713 129.247 46.4091 129.247C49.9682 129.247 51.8652 128.023 51.8652 125.617V118.727H54.6326V126.106C54.6326 127.411 53.921 128.471 52.4178 129.287C50.916 130.184 48.8601 130.592 46.4091 130.592C43.8793 130.592 41.9022 130.184 40.4004 129.287C38.8184 128.471 38.1082 127.411 38.1082 126.106V118.727H40.9544V125.617H40.9531ZM5.05412 118.728V129.043H11.9333V130.347H2.28671V118.727L5.05412 118.728ZM72.8176 123.497C76.613 124.271 78.4326 125.413 78.4326 126.963C78.4326 128.023 77.721 128.878 76.2979 129.572C74.9536 130.265 73.2929 130.592 71.3158 130.592C69.4976 130.592 67.9156 130.307 66.5726 129.654C65.3071 129.043 64.5168 128.268 64.2791 127.331L67.1253 127.004C67.1253 127.657 67.5205 128.187 68.3909 128.635C69.2613 129.043 70.2091 129.247 71.4747 129.247C72.6615 129.247 73.6093 129.002 74.4797 128.553C75.1913 128.146 75.5864 127.615 75.5864 126.963C75.5864 126.066 74.3208 125.333 71.7123 124.761L70.1303 124.477C66.9678 123.702 65.3071 122.724 65.3071 121.5C65.3071 120.603 66.0186 119.828 67.2842 119.297C68.6285 118.728 70.1303 118.482 71.9499 118.482C74.5585 118.482 76.4568 119.094 77.721 120.276L75.5076 120.929C74.6372 120.236 73.4518 119.869 71.8698 119.869C70.9207 119.869 69.9715 119.991 69.2599 120.276C68.4696 120.602 68.0731 121.011 68.0731 121.499C68.0731 122.192 69.1011 122.723 71.3144 123.13L72.8176 123.497ZM58.4279 118.728H61.2755V130.348H58.4279V118.728ZM169.462 13.6841L114.926 80.0573L99.8807 63.0332L127.672 24.0282C129.761 21.0118 137.074 19.6106 149.403 19.6106L153.79 13.6841H89.0147L84.8351 19.6106C94.0295 19.6106 97.7909 21.0111 96.327 24.0282L82.5375 43.8539L55.374 13.6841C50.3593 10.452 52.866 8.83519 62.6877 8.83519V1.83244H0V8.83589C11.7024 8.83589 19.0147 10.4527 22.1501 13.6848L68.1207 64.1115L46.5979 93.7421C46.1783 97.7283 34.0603 99.6693 10.6568 99.6693L6.26945 105.595H185.134L210 78.3348H197.044C184.926 92.4495 170.926 99.6693 155.255 99.6693H73.134L85.2533 82.968L95.701 93.7421H119.105L185.133 13.6855C188.268 8.83659 196.418 6.25143 209.164 6.25143V0H155.253V6.25003C171.552 6.25003 176.15 8.83589 169.462 13.6841Z" stroke="black" stroke-width="4" mask="url(#path-1-inside-1_7_42)"/>
</svg>
