<svg width="232" height="70" viewBox="0 0 232 70" fill="none" xmlns="http://www.w3.org/2000/svg">
    <path d="M1.00112 50.1865L1.00112 50.1869C0.947924 55.0647 2.78273 59.276 7.23986 62.5025L7.24014 62.5027C13.8475 67.2893 21.1369 68.9899 28.4482 69C39.0394 69.0124 49.5904 65.4725 58.0548 62.6328L58.3773 62.5246L58.3775 62.5245C65.5102 60.1332 108.573 44.5586 149.879 29.5724C170.526 22.0813 190.726 14.74 205.765 9.27148C213.284 6.53721 219.513 4.27114 223.862 2.68864L224.488 2.46069C224.005 2.57035 223.496 2.68595 222.961 2.80728C218.204 3.8867 211.451 5.4199 203.368 7.25523C187.203 10.9259 165.722 15.8049 144.265 20.6789C122.808 25.553 101.375 30.4219 85.3065 34.0724L65.8942 38.4826L60.457 39.7178L59.0247 40.0432L58.6575 40.1267L58.5646 40.1478L58.5426 40.1527C58.541 40.1531 58.5394 40.1535 58.5378 40.1538M1.00112 50.1865L48.3441 40.376C51.7154 40.3512 55.0677 39.9489 58.3118 39.1797C58.5334 40.1549 58.534 40.1547 58.5354 40.1544L58.5378 40.1538M1.00112 50.1865C1.07051 43.6004 4.5863 35.7522 10.0817 27.6066C14.4044 21.1992 19.8929 14.6932 25.7139 8.59376M1.00112 50.1865L25.7139 8.59376M58.5378 40.1538C55.2211 40.9399 51.7955 41.3507 48.3515 41.376L48.3491 41.376C41.6299 41.4094 35.1929 39.8659 30.4159 36.5812C25.5995 33.2695 22.5139 28.2092 22.5638 21.4016C22.5912 17.6329 23.5788 13.3652 25.7139 8.59376M58.5378 40.1538L25.7139 8.59376"
          stroke="black" stroke-width="2"/>
</svg>
